<svg width="325" height="325" viewBox="0 0 325 325" fill="none" xmlns="http://www.w3.org/2000/svg">
<path d="M238.193 204.511L244.425 207.901L244.494 207.936L244.624 207.997L244.817 208.082L245.074 208.186L245.397 208.308L245.786 208.442L246.243 208.587L246.767 208.737L247.361 208.89L248.023 209.042L248.755 209.189L249.556 209.329L250.427 209.456L251.368 209.568L252.378 209.66L253.457 209.73L254.605 209.773L255.82 209.786L257.102 209.766L258.45 209.708L259.862 209.61L261.338 209.467L262.877 209.276L264.475 209.034L266.133 208.738L267.847 208.383L269.617 207.967L271.439 207.487L273.313 206.939L274.268 206.639L274.749 206.483L274.991 206.402L275.113 206.362L275.173 206.342L275.204 206.331L275.219 206.326L275.221 206.324L277.072 201.108L277.072 201.105L277.063 201.092L277.046 201.065L277.012 201.011L276.943 200.903L276.806 200.688L276.531 200.263L275.978 199.428L274.869 197.822L273.757 196.3L272.646 194.862L271.538 193.506L270.438 192.231L269.35 191.035L268.276 189.918L267.22 188.876L266.186 187.909L265.176 187.015L264.193 186.191L263.242 185.435L262.324 184.745L261.442 184.119L260.6 183.554L259.799 183.048L259.042 182.598L258.332 182.201L257.671 181.854L257.061 181.554L256.504 181.299L256.002 181.085L255.557 180.909L255.17 180.769L254.843 180.659L254.577 180.578L254.374 180.522L254.234 180.488L254.159 180.471L247.184 179.175L248.618 164.796L255.711 164.903L255.788 164.901L255.932 164.895L256.142 164.88L256.419 164.853L256.761 164.811L257.168 164.749L257.639 164.665L258.173 164.554L258.77 164.414L259.427 164.241L260.143 164.031L260.918 163.782L261.748 163.49L262.633 163.152L263.571 162.764L264.559 162.324L265.595 161.83L266.677 161.277L267.802 160.663L268.969 159.985L270.174 159.241L271.415 158.429L272.688 157.545L273.991 156.588L275.321 155.555L276.674 154.444L278.048 153.254L279.439 151.982L280.843 150.626L281.549 149.917L281.903 149.554L282.08 149.371L282.168 149.278L282.213 149.232L282.235 149.209L282.246 149.198L282.247 149.195L281.462 143.716L281.46 143.714L281.446 143.706L281.418 143.69L281.363 143.658L281.252 143.594L281.031 143.468L280.589 143.219L279.712 142.736L277.984 141.829L276.292 140.999L274.639 140.242L273.029 139.556L271.462 138.938L269.943 138.385L268.472 137.895L267.054 137.463L265.688 137.088L264.378 136.765L263.126 136.492L261.932 136.265L260.798 136.081L259.727 135.937L258.718 135.828L257.774 135.752L256.895 135.705L256.082 135.683L255.335 135.683L254.656 135.701L254.044 135.734L253.5 135.778L253.024 135.829L252.616 135.884L252.276 135.94L252.003 135.991L251.797 136.036L251.657 136.071L251.583 136.091L244.805 138.185L239.392 124.787L245.722 121.585L245.789 121.548L245.914 121.475L246.093 121.364L246.326 121.212L246.609 121.015L246.941 120.772L247.319 120.478L247.74 120.132L248.203 119.73L248.705 119.272L249.242 118.753L249.811 118.173L250.411 117.528L251.037 116.817L251.687 116.038L252.358 115.19L253.045 114.27L253.746 113.278L254.458 112.211L255.176 111.069L255.897 109.851L256.618 108.555L257.335 107.18L258.044 105.727L258.742 104.195L259.424 102.582L260.087 100.89L260.727 99.117L261.34 97.2642L261.636 96.3078L261.781 95.8222L261.852 95.5775L261.888 95.4547L261.905 95.3931L261.914 95.3623L261.919 95.3469L261.918 95.3441L258.677 90.8575L258.675 90.8563L258.658 90.8556L258.626 90.8544L258.562 90.8519L258.435 90.8471L258.18 90.8382L257.673 90.823L256.673 90.8031L254.721 90.8034L252.837 90.8544L251.022 90.9523L249.277 91.0935L247.603 91.2743L246 91.4909L244.47 91.7398L243.014 92.0172L241.63 92.3192L240.32 92.6423L239.084 92.9826L237.922 93.3365L236.833 93.7002L235.816 94.0702L234.873 94.4427L234.001 94.8141L233.201 95.1809L232.471 95.5395L231.81 95.8865L231.217 96.2183L230.691 96.5317L230.229 96.8234L229.832 97.09L229.496 97.3284L229.22 97.5355L229.003 97.7082L228.841 97.8437L228.733 97.9391L228.677 97.9916L223.648 102.996L212.629 93.6479L216.746 87.8707L216.789 87.8065L216.865 87.6846L216.972 87.5031L217.107 87.2602L217.267 86.9544L217.447 86.5843L217.645 86.1486L217.858 85.646L218.081 85.0755L218.312 84.4363L218.547 83.7276L218.781 82.9488L219.013 82.0993L219.237 81.1788L219.451 80.1873L219.65 79.1245L219.831 77.9907L219.991 76.786L220.125 75.5109L220.23 74.1659L220.303 72.7517L220.339 71.2692L220.335 69.7192L220.287 68.103L220.193 66.4218L220.048 64.6771L219.848 62.8703L219.591 61.0031L219.273 59.0775L219.09 58.0934L218.993 57.5961L218.943 57.3462L218.917 57.2209L218.904 57.1582L218.898 57.1268L218.894 57.1111L218.893 57.1088L213.938 54.6424L213.935 54.6425L213.92 54.6494L213.891 54.6632L213.834 54.6907L213.718 54.7458L213.488 54.8563L213.033 55.0783L212.138 55.5257L210.41 56.433L208.765 57.3537L207.203 58.2839L205.724 59.2199L204.325 60.158L203.007 61.0945L201.768 62.0258L200.607 62.9484L199.523 63.8588L198.513 64.7536L197.577 65.6294L196.712 66.483L195.916 67.3112L195.189 68.1109L194.526 68.8792L193.927 69.6131L193.389 70.3098L192.909 70.9667L192.485 71.5811L192.114 72.1506L191.794 72.6727L191.521 73.1452L191.293 73.5661L191.106 73.9332L190.958 74.2447L190.846 74.4988L190.766 74.6939L190.715 74.8284L190.689 74.9011L188.562 81.6688L174.461 78.5128L175.422 71.484L175.429 71.4074L175.441 71.2639L175.451 71.0533L175.458 70.7755L175.457 70.4307L175.445 70.0191L175.418 69.5412L175.372 68.9974L175.305 68.3885L175.212 67.7153L175.091 66.9787L174.936 66.18L174.747 65.3203L174.517 64.401L174.246 63.4238L173.928 62.3901L173.562 61.3019L173.143 60.1611L172.67 58.9696L172.138 57.7298L171.545 56.444L170.888 55.1145L170.164 53.7439L169.371 52.3349L168.506 50.8902L167.566 49.4128L166.55 47.9056L165.455 46.3718L164.278 44.8145L163.659 44.0281L163.342 43.6331L163.181 43.4352L163.1 43.3361L163.06 43.2866L163.039 43.2618L163.029 43.2494L163.027 43.2481L157.493 43.367L157.49 43.3684L157.481 43.3812L157.462 43.4068L157.423 43.4581L157.347 43.5605L157.195 43.7651L156.894 44.1734L156.309 44.9857L155.201 46.5921L154.173 48.1716L153.222 49.721L152.347 51.2374L151.545 52.7178L150.813 54.1596L150.149 55.56L149.549 56.9165L149.012 58.2267L148.534 59.4882L148.112 60.6988L147.743 61.8566L147.423 62.9595L147.151 64.0059L146.921 64.9939L146.732 65.9222L146.579 66.7892L146.459 67.5939L146.369 68.335L146.306 69.0115L146.265 69.6228L146.243 70.168L146.236 70.6466L146.242 71.0584L146.255 71.4029L146.274 71.6801L146.294 71.8901L146.311 72.033L146.322 72.1092L147.584 79.0902L133.631 82.8489L131.215 76.1788L131.187 76.1073L131.13 75.9751L131.041 75.7836L130.918 75.5346L130.757 75.2298L130.555 74.871L130.309 74.4603L130.016 73.9999L129.673 73.492L129.278 72.9391L128.828 72.3434L128.321 71.7078L127.753 71.0348L127.123 70.3273L126.428 69.5882L125.667 68.8204L124.837 68.0272L123.936 67.2115L122.963 66.3767L121.916 65.5261L120.793 64.6632L119.593 63.7913L118.316 62.914L116.959 62.035L115.521 61.1578L114.003 60.2863L112.402 59.424L110.72 58.5748L108.955 57.7426L108.041 57.334L107.576 57.1318L107.342 57.0312L107.224 56.9811L107.165 56.9561L107.136 56.9436L107.121 56.9373L107.118 56.9373L102.274 59.6142L102.272 59.6167L102.269 59.6325L102.264 59.6641L102.254 59.7273L102.234 59.8536L102.194 60.1055L102.118 60.6065L101.978 61.5975L101.743 63.535L101.567 65.4115L101.445 67.2251L101.375 68.9745L101.352 70.6583L101.374 72.275L101.437 73.8237L101.537 75.3033L101.67 76.7131L101.833 78.0524L102.021 79.3205L102.233 80.5172L102.462 81.6422L102.707 82.6954L102.963 83.6769L103.227 84.5869L103.495 85.4256L103.763 86.1937L104.027 86.8917L104.285 87.5204L104.533 88.0807L104.767 88.5737L104.984 89.0005L105.18 89.3625L105.352 89.6612L105.498 89.898L105.613 90.0748L105.694 90.1933L105.74 90.2556L110.101 95.8506L99.4931 105.663L94.2543 100.88L94.1957 100.83L94.0839 100.739L93.9166 100.61L93.6918 100.447L93.4075 100.252L93.0618 100.028L92.6531 99.7791L92.1798 99.5076L91.6405 99.217L91.0338 98.9109L90.3585 98.5927L89.6136 98.2657L88.7982 97.9337L87.9115 97.6L86.9529 97.2684L85.9219 96.9424L84.8182 96.6258L83.6416 96.3222L82.392 96.0352L81.0694 95.7687L79.6743 95.5264L78.2069 95.3119L76.6678 95.1289L75.0576 94.9812L73.3773 94.8725L71.6277 94.8064L69.8101 94.7866L67.9256 94.8166L65.9757 94.9001L64.9767 94.963L64.4713 94.9999L64.2171 95.0197L64.0897 95.03L64.0259 95.0352L63.9939 95.0379L63.978 95.0392L63.9754 95.0405L60.9298 99.6622L60.9296 99.6651L60.9346 99.6803L60.9448 99.7106L60.9652 99.7713L61.006 99.8925L61.088 100.134L61.2534 100.613L61.5897 101.556L62.2821 103.38L62.9978 105.124L63.733 106.786L64.4838 108.368L65.2465 109.869L66.0173 111.291L66.7925 112.633L67.5684 113.897L68.3414 115.083L69.108 116.193L69.8645 117.228L70.6076 118.19L71.334 119.079L72.0402 119.898L72.723 120.648L73.3793 121.331L74.0061 121.95L74.6003 122.505L75.1592 123L75.6797 123.437L76.1594 123.818L76.5957 124.146L76.9859 124.423L77.3279 124.652L77.6193 124.837L77.858 124.979L78.042 125.082L78.1694 125.149L78.2385 125.183L84.7004 128.11L79.8677 141.728L73.006 139.928L72.9309 139.91L72.7898 139.882L72.582 139.846L72.307 139.806L71.9646 139.766L71.5546 139.728L71.0769 139.697L70.5316 139.677L69.919 139.67L69.2395 139.681L68.4937 139.713L67.6822 139.77L66.8058 139.855L65.8657 139.971L64.8628 140.123L63.7984 140.314L62.674 140.546L61.491 140.824L60.2512 141.151L58.9563 141.529L57.6083 141.963L56.2093 142.455L54.7615 143.008L53.2671 143.626L51.7287 144.311L50.1489 145.065L48.5302 145.892L46.8755 146.795L45.1878 147.775L44.3324 148.295L43.9021 148.562L43.6862 148.698L43.5781 148.766L43.5241 148.801L43.497 148.818L43.4835 148.826L43.4819 148.829L42.9329 154.336L42.934 154.339L42.9456 154.35L42.9687 154.372L43.0149 154.417L43.1074 154.505L43.2922 154.68L43.6613 155.028L44.3972 155.706L45.8582 157L47.3022 158.211L48.7258 159.342L50.1256 160.393L51.4986 161.368L52.8417 162.268L54.1518 163.097L55.4262 163.855L56.662 164.546L57.8567 165.173L59.0076 165.738L60.1124 166.244L61.1689 166.694L62.1747 167.091L63.1279 167.438L64.0265 167.738L64.8689 167.994L65.6532 168.21L66.378 168.388L67.042 168.533L67.6438 168.648L68.1824 168.735L68.6568 168.799L69.0662 168.843L69.4099 168.871L69.6873 168.886L69.8981 168.892L70.0421 168.892L70.1191 168.89L77.2013 168.479L79.2507 182.783L72.3381 184.377L72.2637 184.397L72.1255 184.438L71.9248 184.502L71.6627 184.595L71.3407 184.718L70.9602 184.875L70.5229 185.07L70.0305 185.305L69.4851 185.584L68.8885 185.91L68.243 186.285L67.5508 186.712L66.8143 187.194L66.036 187.734L65.2185 188.335L64.3646 188.998L63.477 189.727L62.5587 190.523L61.6127 191.388L60.6421 192.325L59.6501 193.336L58.64 194.421L57.6151 195.584L56.5789 196.825L55.5349 198.146L54.4867 199.549L53.4378 201.033L52.392 202.601L51.353 204.254L50.8373 205.111L50.5806 205.548L50.4525 205.769L50.3886 205.879L50.3566 205.935L50.3406 205.963L50.3327 205.977L50.3323 205.98L52.4058 211.111L52.408 211.113L52.4234 211.118L52.4542 211.127L52.5157 211.144L52.6386 211.18L52.8839 211.249L53.372 211.385L54.339 211.644L56.234 212.111L58.0755 212.512L59.8613 212.851L61.5895 213.132L63.2582 213.357L64.8658 213.53L66.4108 213.655L67.8916 213.734L69.3072 213.772L70.6563 213.772L71.938 213.737L73.1514 213.672L74.2959 213.579L75.3709 213.463L76.3761 213.327L77.3112 213.175L78.1761 213.011L78.9709 212.837L79.6957 212.658L80.3509 212.478L80.937 212.3L81.4546 212.127L81.9044 211.963L82.2874 211.812L82.6047 211.677L82.8573 211.561L83.0467 211.468L83.1742 211.402L83.2414 211.364L89.3214 207.709L97.7836 219.422L92.4036 224.046L92.3469 224.098L92.2434 224.198L92.0957 224.349L91.9066 224.553L91.6787 224.811L91.4149 225.127L91.1181 225.503L90.7915 225.94L90.4381 226.441L90.0611 227.006L89.6638 227.638L89.2495 228.338L88.8215 229.107L88.3834 229.947L87.9387 230.859L87.4908 231.843L87.0434 232.901L86.6002 234.032L86.1647 235.238L85.7408 236.519L85.332 237.875L84.9422 239.306L84.5751 240.811L84.2344 242.392L83.9239 244.047L83.6474 245.776L83.4086 247.578L83.2113 249.452L83.0591 251.398L83.0011 252.397L82.9768 252.903L82.9659 253.158L82.9607 253.286L82.9582 253.35L82.957 253.382L82.9564 253.398L82.9574 253.401L87.1783 256.981L87.1811 256.982L87.1968 256.978L87.2282 256.972L87.2909 256.959L87.4161 256.933L87.6656 256.881L88.1611 256.774L89.1375 256.554L91.0324 256.087L92.8495 255.586L94.5884 255.057L96.249 254.502L97.8313 253.926L99.3352 253.332L100.761 252.724L102.109 252.107L103.38 251.482L104.575 250.855L105.693 250.229L106.737 249.607L107.708 248.993L108.606 248.391L109.433 247.803L110.19 247.234L110.879 246.686L111.502 246.164L112.061 245.668L112.558 245.204L112.994 244.774L113.372 244.381L113.694 244.027L113.963 243.715L114.181 243.448L114.351 243.228L114.475 243.058L114.557 242.939L114.599 242.875L118.284 236.813L131.221 243.252L128.606 249.846L128.58 249.919L128.535 250.056L128.474 250.257L128.401 250.526L128.319 250.861L128.233 251.263L128.145 251.734L128.058 252.272L127.978 252.88L127.907 253.556L127.849 254.3L127.807 255.112L127.786 255.992L127.788 256.94L127.818 257.954L127.879 259.033L127.974 260.178L128.108 261.385L128.283 262.656L128.502 263.987L128.771 265.377L129.09 266.825L129.465 268.329L129.898 269.887L130.392 271.497L130.951 273.156L131.577 274.863L132.273 276.614L133.042 278.408L133.456 279.319L133.669 279.779L133.778 280.009L133.833 280.125L133.86 280.183L133.874 280.212L133.881 280.226L133.883 280.228L139.284 281.437L139.287 281.436L139.3 281.426L139.324 281.406L139.374 281.365L139.473 281.284L139.669 281.122L140.059 280.797L140.821 280.148L142.282 278.854L143.658 277.567L144.952 276.29L146.164 275.027L147.298 273.781L148.353 272.557L149.333 271.356L150.24 270.182L151.075 269.039L151.841 267.928L152.541 266.854L153.176 265.818L153.75 264.824L154.265 263.873L154.725 262.968L155.131 262.112L155.487 261.307L155.795 260.555L156.06 259.857L156.284 259.215L156.47 258.631L156.622 258.107L156.743 257.644L156.836 257.243L156.905 256.905L156.953 256.631L156.984 256.423L157.002 256.28L157.009 256.203L157.455 249.123L171.902 248.813L172.651 255.867L172.662 255.943L172.685 256.085L172.725 256.293L172.785 256.564L172.869 256.898L172.979 257.295L173.12 257.753L173.294 258.27L173.505 258.845L173.756 259.476L174.051 260.162L174.391 260.901L174.781 261.69L175.224 262.528L175.721 263.412L176.277 264.34L176.893 265.308L177.573 266.316L178.318 267.359L179.131 268.436L180.014 269.542L180.971 270.676L182.001 271.834L183.109 273.012L184.294 274.208L185.56 275.417L186.907 276.637L188.338 277.865L189.853 279.095L190.642 279.71L191.045 280.018L191.248 280.172L191.351 280.248L191.402 280.287L191.427 280.306L191.44 280.316L191.443 280.316L196.787 278.877L196.79 278.875L196.796 278.86L196.808 278.83L196.833 278.771L196.883 278.654L196.982 278.419L197.176 277.95L197.549 277.022L198.241 275.197L198.861 273.417L199.413 271.685L199.9 270.003L200.325 268.374L200.69 266.799L201 265.28L201.258 263.82L201.466 262.419L201.628 261.08L201.748 259.803L201.83 258.591L201.876 257.444L201.89 256.362L201.876 255.348L201.838 254.402L201.779 253.523L201.703 252.713L201.613 251.972L201.513 251.3L201.406 250.697L201.297 250.162L201.189 249.696L201.085 249.297L200.989 248.966L200.905 248.701L200.835 248.502L200.784 248.368L200.755 248.296L197.86 241.82L210.507 234.831L214.449 240.73L214.494 240.792L214.581 240.907L214.713 241.072L214.892 241.284L215.121 241.541L215.403 241.841L215.74 242.181L216.135 242.558L216.589 242.969L217.105 243.412L217.684 243.882L218.329 244.378L219.042 244.896L219.823 245.432L220.674 245.983L221.597 246.546L222.593 247.118L223.663 247.694L224.807 248.272L226.028 248.847L227.324 249.416L228.698 249.976L230.148 250.522L231.676 251.051L233.282 251.558L234.965 252.041L236.725 252.495L238.562 252.917L240.475 253.303L241.46 253.481L241.96 253.566L242.211 253.607L242.337 253.628L242.401 253.638L242.432 253.643L242.448 253.646L242.451 253.645L246.514 249.887L246.515 249.884L246.514 249.868L246.511 249.836L246.506 249.772L246.495 249.645L246.473 249.391L246.427 248.886L246.326 247.89L246.091 245.953L245.813 244.089L245.497 242.299L245.147 240.583L244.765 238.943L244.357 237.379L243.926 235.89L243.475 234.477L243.008 233.14L242.53 231.879L242.043 230.693L241.551 229.581L241.059 228.544L240.569 227.58L240.086 226.688L239.612 225.868L239.151 225.118L238.707 224.436L238.283 223.822L237.882 223.273L237.508 222.788L237.163 222.365L236.85 222.003L236.573 221.698L236.334 221.45L236.136 221.254L235.982 221.11L235.875 221.015L235.816 220.965L230.242 216.576L238.193 204.511Z" fill="white" stroke="#007DFF" stroke-miterlimit="10"/>
</svg>
