<svg width="253" height="254" viewBox="0 0 253 254" fill="none" xmlns="http://www.w3.org/2000/svg">
<path d="M70.1836 152.994L61.342 157.013L61.2642 157.052L61.1112 157.136L60.8863 157.268L60.5926 157.455L60.2339 157.701L59.8139 158.012L59.3369 158.391L58.8072 158.843L58.2293 159.372L57.6082 159.981L56.9486 160.675L56.256 161.457L55.5357 162.33L54.7932 163.296L54.0343 164.358L53.2648 165.519L52.4907 166.78L51.7182 168.143L50.9534 169.609L50.2028 171.18L49.4726 172.855L48.7694 174.636L48.0996 176.523L47.4699 178.514L46.8866 180.611L46.7489 181.151L46.715 181.287L46.6981 181.355L46.699 181.358L49.668 185.505L49.6704 185.507L49.7404 185.513L49.8802 185.525L50.436 185.568L52.6085 185.692L54.6968 185.737L56.6985 185.711L58.6111 185.62L60.4326 185.468L62.1613 185.264L63.7958 185.012L65.3349 184.72L66.7781 184.394L68.1249 184.04L69.3751 183.664L70.529 183.272L71.5871 182.871L72.5504 182.468L73.4199 182.067L74.1972 181.675L74.8841 181.299L75.4826 180.943L75.9951 180.613L76.4243 180.316L76.7731 180.056L77.0448 179.838L77.2427 179.668L77.3707 179.55L77.4327 179.489L84.087 172.414L95.933 181.148L91.1426 189.597L91.1025 189.674L91.0277 189.831L90.9236 190.07L90.7959 190.394L90.6505 190.804L90.4932 191.302L90.3301 191.889L90.1672 192.566L90.0105 193.334L89.8663 194.192L89.7407 195.141L89.6399 196.181L89.57 197.31L89.5372 198.528L89.5476 199.834L89.6073 201.225L89.7222 202.7L89.8984 204.257L90.1415 205.893L90.4574 207.605L90.8516 209.389L91.3295 211.244L91.8965 213.163L92.5577 215.145L93.318 217.184L93.5241 217.702L93.5767 217.832L93.6031 217.897L93.6056 217.899L98.445 219.508L98.4481 219.509L98.5082 219.472L98.6282 219.4L99.1036 219.108L100.934 217.931L102.65 216.741L104.254 215.543L105.748 214.345L107.132 213.152L108.411 211.97L109.585 210.806L110.659 209.665L111.634 208.553L112.516 207.474L113.306 206.435L114.009 205.44L114.63 204.494L115.172 203.601L115.64 202.766L116.039 201.992L116.373 201.284L116.648 200.644L116.869 200.076L117.041 199.584L117.171 199.168L117.262 198.832L117.322 198.578L117.357 198.407L117.371 198.322L118.596 188.687L133.313 188.789L134.404 198.44L134.417 198.526L134.448 198.698L134.505 198.953L134.592 199.29L134.716 199.707L134.881 200.202L135.094 200.773L135.36 201.416L135.685 202.129L136.072 202.909L136.529 203.75L137.058 204.651L137.665 205.605L138.355 206.61L139.131 207.66L139.997 208.751L140.957 209.876L142.014 211.032L143.172 212.213L144.434 213.412L145.802 214.624L147.279 215.843L148.866 217.063L150.565 218.278L152.379 219.48L152.85 219.778L152.969 219.852L153.029 219.89L153.032 219.89L157.893 218.347L157.896 218.346L157.923 218.281L157.977 218.152L158.191 217.637L158.98 215.609L159.668 213.637L160.262 211.725L160.766 209.877L161.185 208.098L161.525 206.391L161.791 204.759L161.988 203.205L162.124 201.731L162.203 200.341L162.232 199.036L162.216 197.817L162.162 196.687L162.076 195.646L161.963 194.696L161.831 193.835L161.685 193.066L161.532 192.387L161.377 191.797L161.226 191.297L161.087 190.885L160.964 190.559L160.863 190.318L160.79 190.16L160.751 190.082L156.079 181.568L168.046 173L174.601 180.167L174.662 180.229L174.788 180.349L174.984 180.522L175.252 180.743L175.598 181.008L176.023 181.312L176.53 181.648L177.124 182.013L177.806 182.399L178.577 182.801L179.441 183.214L180.399 183.631L181.451 184.046L182.599 184.454L183.844 184.848L185.186 185.221L186.624 185.567L188.159 185.881L189.79 186.155L191.516 186.384L193.335 186.56L195.246 186.679L197.247 186.733L199.336 186.716L201.51 186.623L202.066 186.587L202.206 186.577L202.276 186.572L202.279 186.57L205.305 182.465L205.306 182.462L205.29 182.394L205.258 182.257L205.128 181.715L204.574 179.611L203.972 177.611L203.329 175.715L202.651 173.925L201.944 172.239L201.215 170.658L200.471 169.181L199.718 167.808L198.961 166.536L198.208 165.365L197.464 164.292L196.735 163.315L196.027 162.433L195.346 161.642L194.696 160.938L194.083 160.32L193.513 159.783L192.989 159.324L192.518 158.938L192.102 158.622L191.747 158.371L191.456 158.18L191.233 158.044L191.081 157.959L191.004 157.919L182.219 153.776L186.865 139.811L196.38 141.756L196.466 141.771L196.639 141.793L196.899 141.818L197.246 141.839L197.681 141.851L198.203 141.847L198.812 141.82L199.506 141.766L200.285 141.678L201.146 141.55L202.087 141.376L203.107 141.151L204.202 140.868L205.371 140.523L206.609 140.11L207.914 139.623L209.282 139.058L210.708 138.409L212.188 137.673L213.719 136.843L215.294 135.917L216.91 134.889L218.561 133.757L220.241 132.516L221.945 131.162L222.374 130.806L222.481 130.716L222.535 130.671L222.536 130.668L222.572 125.568L222.571 125.565L222.518 125.519L222.412 125.427L221.988 125.065L220.303 123.688L218.64 122.424L217.005 121.269L215.404 120.219L213.841 119.27L212.323 118.42L210.853 117.662L209.436 116.994L208.076 116.41L206.778 115.905L205.546 115.474L204.382 115.113L203.291 114.815L202.274 114.575L201.335 114.388L200.476 114.248L199.699 114.149L199.006 114.085L198.397 114.051L197.875 114.039L197.44 114.044L197.092 114.061L196.832 114.082L196.659 114.103L196.573 114.116L187.031 115.928L182.581 101.899L191.423 97.8797L191.501 97.8407L191.654 97.7576L191.879 97.6251L192.172 97.4381L192.531 97.1917L192.951 96.8813L193.428 96.5022L193.958 96.0503L194.536 95.5215L195.157 94.9118L195.816 94.2178L196.509 93.4361L197.229 92.5635L197.972 91.5973L198.731 90.535L199.5 89.3744L200.274 88.1134L201.047 86.7504L201.812 85.2842L202.562 83.7136L203.292 82.038L203.996 80.2571L204.665 78.3706L205.295 76.3789L205.878 74.2826L206.016 73.7423L206.05 73.6062L206.067 73.538L206.066 73.5351L203.097 69.3881L203.095 69.3863L203.025 69.3803L202.885 69.3686L202.329 69.3248L200.156 69.2014L198.068 69.1557L196.066 69.1818L194.154 69.2735L192.332 69.4248L190.604 69.6292L188.969 69.8807L187.43 70.1727L185.987 70.4991L184.64 70.8535L183.39 71.2296L182.236 71.6212L181.178 72.0219L180.215 72.4256L179.345 72.8262L178.568 73.2178L177.881 73.5944L177.282 73.9503L176.77 74.2797L176.341 74.5771L175.992 74.8374L175.72 75.0551L175.522 75.2254L175.394 75.3433L175.332 75.4044L168.678 82.479L156.832 73.7454L161.622 65.2966L161.662 65.2194L161.737 65.0622L161.841 64.8228L161.969 64.4989L162.114 64.0887L162.272 63.5907L162.435 63.0037L162.598 62.3267L162.754 61.5592L162.899 60.7009L163.024 59.7518L163.125 58.7122L163.195 57.5829L163.228 56.3648L163.217 55.0593L163.158 53.668L163.043 52.1929L162.867 50.6361L162.623 49.0004L162.308 47.2886L161.913 45.5038L161.435 43.6496L160.868 41.7298L160.207 39.7483L159.447 37.7095L159.241 37.1915L159.188 37.0614L159.162 36.9963L159.159 36.9945L154.32 35.3847L154.317 35.3846L154.257 35.4209L154.137 35.4935L153.661 35.7849L151.831 36.9619L150.115 38.1525L148.511 39.3502L147.017 40.5486L145.633 41.7416L144.354 42.9231L143.18 44.0872L142.106 45.2282L141.131 46.3406L140.249 47.4189L139.459 48.458L138.756 49.453L138.135 50.3991L137.593 51.2919L137.125 52.1272L136.726 52.9009L136.392 53.6093L136.117 54.2489L135.896 54.8167L135.724 55.3096L135.594 55.7252L135.503 56.061L135.442 56.3151L135.408 56.4858L135.394 56.5716L134.169 66.2064L119.452 66.1037L118.361 56.4527L118.348 56.3667L118.316 56.1955L118.26 55.9406L118.173 55.6035L118.049 55.1862L117.884 54.6909L117.671 54.1202L117.405 53.4767L117.08 52.7637L116.693 51.9845L116.236 51.1428L115.707 50.2426L115.1 49.2878L114.41 48.2831L113.634 47.2331L112.768 46.1426L111.808 45.0167L110.751 43.8608L109.593 42.6804L108.331 41.4812L106.963 40.269L105.486 39.0498L103.899 37.8299L102.2 36.6154L100.386 35.413L99.9148 35.115L99.7958 35.0407L99.7362 35.0036L99.7331 35.0036L94.8717 36.5457L94.8692 36.5475L94.8419 36.6122L94.7875 36.7415L94.5741 37.2566L93.7854 39.2846L93.0966 41.2566L92.5029 43.1684L91.9991 45.0157L91.5801 46.7948L91.2403 48.5021L90.9744 50.1342L90.7765 51.6884L90.641 53.1617L90.5619 54.5521L90.5333 55.8573L90.549 57.0757L90.6031 58.2059L90.6895 59.2468L90.8018 60.1976L90.934 61.0578L91.0799 61.8275L91.2334 62.5066L91.3883 63.0959L91.5386 63.596L91.6783 64.0081L91.8014 64.3338L91.9022 64.5747L91.9748 64.7329L92.0138 64.8107L96.6858 73.3255L84.719 81.8928L78.1641 74.7261L78.103 74.6641L77.9766 74.5443L77.7811 74.3713L77.5125 74.1498L77.1673 73.8848L76.7423 73.5813L76.2345 73.2448L75.641 72.8806L74.9594 72.4945L74.1877 72.0921L73.3238 71.6793L72.3663 71.2622L71.3139 70.8468L70.1655 70.4392L68.9207 70.0456L67.579 69.6725L66.1406 69.326L64.6056 69.0124L62.9748 68.7382L61.2492 68.5096L59.4299 68.333L57.5188 68.2145L55.5177 68.1605L53.4289 68.177L51.255 68.2701L50.6985 68.3061L50.5586 68.3159L50.4885 68.3209L50.4861 68.3227L47.4595 72.4278L47.4585 72.4307L47.4745 72.4991L47.5065 72.6357L47.6367 73.1778L48.1906 75.2821L48.7925 77.2824L49.4358 79.178L50.1141 80.9687L50.8208 82.6543L51.5495 84.2351L52.2937 85.7119L53.0471 87.0855L53.8035 88.3572L54.5567 89.5285L55.3007 90.6013L56.0297 91.5777L56.7377 92.4603L57.4194 93.2516L58.0691 93.9548L58.6817 94.573L59.2521 95.1099L59.7755 95.5692L60.2472 95.9548L60.6627 96.2711L61.018 96.5224L61.309 96.7135L61.5321 96.8492L61.6839 96.9344L61.7611 96.9745L70.5458 101.117L65.9002 115.082L56.3847 113.137L56.2988 113.123L56.1262 113.1L55.8663 113.075L55.5188 113.054L55.0838 113.042L54.5616 113.046L53.9529 113.073L53.2587 113.127L52.4803 113.215L51.6195 113.343L50.678 113.517L49.6581 113.742L48.5625 114.025L47.3939 114.37L46.1555 114.783L44.8507 115.27L43.4833 115.835L42.0572 116.484L40.5767 117.221L39.0462 118.05L37.4706 118.976L35.8549 120.004L34.2042 121.136L32.524 122.378L30.82 123.731L30.391 124.087L30.2835 124.177L30.2298 124.222L30.2288 124.225L30.1932 129.325L30.1942 129.328L30.2472 129.374L30.3534 129.466L30.7774 129.828L32.4624 131.205L34.1251 132.469L35.7598 133.625L37.361 134.675L38.9236 135.623L40.4423 136.474L41.9124 137.231L43.3293 137.899L44.6887 138.483L45.9865 138.988L47.219 139.419L48.3827 139.78L49.4743 140.078L50.4908 140.318L51.4298 140.505L52.2888 140.645L53.0659 140.744L53.7592 140.808L54.3675 140.843L54.8896 140.854L55.3247 140.849L55.6725 140.832L55.9327 140.811L56.1056 140.791L56.1917 140.778L65.7335 138.965L70.1836 152.994Z" fill="white" stroke="#007DFF" stroke-miterlimit="10"/>
</svg>
