<svg width="257" height="256" viewBox="0 0 257 256" fill="none" xmlns="http://www.w3.org/2000/svg">
<path d="M155.877 182.859L160.202 191.555L160.244 191.632L160.332 191.782L160.473 192.002L160.67 192.289L160.929 192.639L161.253 193.047L161.649 193.511L162.119 194.025L162.668 194.584L163.299 195.183L164.015 195.818L164.821 196.483L165.718 197.172L166.709 197.881L167.797 198.602L168.984 199.331L170.272 200.06L171.661 200.785L173.153 201.498L174.748 202.193L176.448 202.864L178.253 203.505L180.162 204.109L182.174 204.668L184.289 205.178L184.834 205.297L184.971 205.326L185.04 205.341L185.043 205.34L189.084 202.228L189.086 202.225L189.089 202.155L189.096 202.015L189.12 201.458L189.168 199.283L189.141 197.194L189.045 195.194L188.886 193.286L188.672 191.471L188.407 189.75L188.099 188.126L187.753 186.598L187.376 185.167L186.975 183.833L186.556 182.597L186.124 181.457L185.687 180.414L185.25 179.465L184.819 178.61L184.4 177.847L184 177.174L183.624 176.588L183.277 176.087L182.964 175.669L182.692 175.329L182.465 175.065L182.288 174.873L182.165 174.75L182.102 174.69L174.8 168.287L183.115 156.143L191.725 160.636L191.804 160.673L191.964 160.742L192.207 160.838L192.535 160.954L192.95 161.085L193.453 161.225L194.045 161.368L194.728 161.507L195.5 161.637L196.363 161.751L197.316 161.843L198.358 161.908L199.489 161.938L200.708 161.928L202.012 161.872L203.401 161.764L204.871 161.598L206.42 161.367L208.047 161.067L209.746 160.692L211.516 160.236L213.353 159.693L215.252 159.06L217.209 158.33L219.22 157.499L219.73 157.275L219.859 157.218L219.923 157.189L219.924 157.186L221.364 152.294L221.364 152.291L221.326 152.232L221.249 152.114L220.941 151.649L219.701 149.862L218.451 148.188L217.199 146.627L215.949 145.176L214.708 143.834L213.483 142.597L212.278 141.464L211.101 140.431L209.955 139.495L208.846 138.652L207.78 137.898L206.761 137.23L205.794 136.643L204.883 136.132L204.032 135.694L203.245 135.322L202.525 135.013L201.876 134.76L201.301 134.559L200.802 134.404L200.383 134.289L200.044 134.209L199.788 134.158L199.616 134.13L199.53 134.119L189.858 133.231L189.447 118.519L199.054 117.092L199.14 117.076L199.31 117.038L199.562 116.973L199.896 116.874L200.309 116.736L200.798 116.554L201.361 116.321L201.995 116.032L202.696 115.683L203.461 115.269L204.287 114.783L205.168 114.223L206.101 113.582L207.081 112.858L208.103 112.046L209.163 111.143L210.255 110.144L211.373 109.047L212.512 107.848L213.667 106.545L214.83 105.136L215.997 103.618L217.161 101.989L218.315 100.248L219.454 98.3937L219.735 97.9123L219.805 97.7908L219.84 97.7299L219.84 97.7269L218.129 92.9222L218.127 92.9198L218.062 92.8947L217.931 92.8449L217.408 92.6497L215.354 91.9322L213.359 91.3126L211.428 90.786L209.564 90.347L207.772 89.9903L206.053 89.7103L204.413 89.5015L202.853 89.358L201.376 89.274L199.983 89.2434L198.678 89.2604L197.461 89.3187L196.333 89.4122L195.296 89.5348L194.35 89.6802L193.495 89.8424L192.731 90.0151L192.057 90.1921L191.474 90.3675L190.979 90.5352L190.572 90.6892L190.251 90.8236L190.014 90.9327L189.858 91.0108L189.782 91.0525L181.435 96.0188L172.455 84.3583L179.389 77.5573L179.449 77.494L179.564 77.3636L179.73 77.1621L179.942 76.8859L180.195 76.5317L180.484 76.0964L180.802 75.5771L181.145 74.9713L181.507 74.2767L181.883 73.4913L182.265 72.6136L182.649 71.6421L183.027 70.5758L183.394 69.414L183.744 68.1562L184.07 66.8023L184.366 65.3526L184.626 63.8076L184.843 62.1683L185.011 60.4357L185.124 58.6114L185.176 56.6973L185.16 54.6955L185.071 52.6086L184.902 50.4392L184.847 49.8844L184.832 49.7449L184.824 49.675L184.823 49.6726L180.614 46.7912L180.611 46.7903L180.544 46.8086L180.408 46.8454L179.871 46.9944L177.787 47.6214L175.809 48.2927L173.937 49.0019L172.171 49.7422L170.511 50.5073L168.957 51.2907L167.507 52.086L166.161 52.8869L164.916 53.6872L163.772 54.4808L162.726 55.2619L161.775 56.0244L160.918 56.7629L160.151 57.4717L159.471 58.1456L158.874 58.7794L158.358 59.3682L157.917 59.9073L157.548 60.3921L157.246 60.8185L157.008 61.1823L156.827 61.4798L156.699 61.7075L156.619 61.8621L156.582 61.9408L152.748 70.8646L138.63 66.7092L140.242 57.1316L140.253 57.0453L140.269 56.872L140.285 56.6114L140.295 56.2634L140.291 55.8282L140.268 55.3065L140.221 54.6991L140.142 54.0072L140.027 53.2324L139.869 52.3765L139.663 51.4417L139.402 50.4303L139.081 49.3452L138.695 48.1894L138.239 46.9662L137.707 45.6792L137.095 44.3323L136.397 42.9297L135.609 41.4758L134.726 39.9752L133.746 38.4329L132.662 36.854L131.473 35.2438L130.174 33.608L128.762 31.9522L128.391 31.5359L128.297 31.4317L128.25 31.3796L128.247 31.3787L123.149 31.5211L123.146 31.5221L123.102 31.5768L123.014 31.6861L122.667 32.1225L121.35 33.8545L120.144 35.5603L119.047 37.2343L118.053 38.8712L117.16 40.4659L116.363 42.0134L115.657 43.509L115.039 44.9484L114.502 46.3273L114.043 47.642L113.656 48.8888L113.335 50.0643L113.076 51.1657L112.872 52.19L112.717 53.1349L112.607 53.9983L112.536 54.7783L112.496 55.4735L112.482 56.0826L112.489 56.6048L112.51 57.0395L112.538 57.3864L112.569 57.6458L112.595 57.8178L112.611 57.9034L114.755 67.3761L100.89 72.3131L96.5648 63.6172L96.5231 63.5408L96.4347 63.3908L96.2944 63.1706L96.0972 62.8837L95.8385 62.5338L95.5136 62.1249L95.1182 61.6614L94.6481 61.1478L94.0994 60.5887L93.4684 59.9892L92.7518 59.3543L91.9463 58.6894L91.0492 58L90.0577 57.2917L88.9695 56.5703L87.7827 55.8417L86.4955 55.1121L85.1064 54.3877L83.6144 53.6746L82.0186 52.9792L80.3185 52.3079L78.5141 51.6673L76.6054 51.0638L74.5929 50.5039L72.4775 49.9942L71.9327 49.8754L71.7956 49.8462L71.7268 49.8317L71.7239 49.8328L67.6831 52.9446L67.6814 52.9471L67.6778 53.0173L67.671 53.1574L67.6467 53.7144L67.5991 55.8898L67.6263 57.9785L67.7223 59.9781L67.8807 61.8863L68.0954 63.7014L68.3601 65.4219L68.6684 67.0466L69.014 68.5747L69.3906 70.0056L69.7918 71.3391L70.2113 72.5754L70.6428 73.715L71.0802 74.7585L71.5173 75.7071L71.9481 76.5621L72.3665 77.3253L72.7669 77.9986L73.1434 78.5843L73.4905 79.085L73.8028 79.5036L74.075 79.8431L74.3021 80.107L74.4791 80.2989L74.6015 80.4227L74.6647 80.4825L81.9672 86.8859L73.6524 99.0294L65.0416 94.5368L64.9629 94.4994L64.8033 94.4301L64.5603 94.3344L64.2322 94.2181L63.8172 94.0871L63.314 93.9473L62.7217 93.8048L62.0394 93.6656L61.2669 93.5358L60.4041 93.4217L59.4512 93.3293L58.4087 93.2648L57.2777 93.2343L56.0592 93.2441L54.7548 93.3L53.3664 93.4082L51.8962 93.5746L50.3466 93.805L48.7203 94.1051L47.0206 94.4805L45.2507 94.9367L43.4143 95.479L41.5153 96.1127L39.5582 96.8426L37.5472 97.6736L37.0366 97.8977L36.9085 97.9548L36.8444 97.9835L36.8426 97.986L35.4026 102.879L35.4027 102.882L35.4411 102.941L35.5179 103.058L35.8257 103.523L37.0658 105.311L38.3156 106.985L39.5685 108.546L40.8183 109.997L42.0589 111.339L43.2843 112.575L44.4887 113.708L45.6665 114.741L46.8122 115.678L47.9206 116.521L48.9867 117.274L50.0056 117.943L50.9728 118.53L51.884 119.04L52.7351 119.479L53.5222 119.85L54.2418 120.16L54.8907 120.412L55.4658 120.613L55.9645 120.768L56.3843 120.883L56.7231 120.963L56.9792 121.014L57.1509 121.042L57.2372 121.054L66.9089 121.942L67.3198 136.653L57.7128 138.08L57.6273 138.096L57.4574 138.134L57.2046 138.199L56.8707 138.298L56.458 138.436L55.9688 138.619L55.4058 138.852L54.772 139.14L54.0708 139.489L53.3056 139.904L52.4803 140.389L51.5991 140.95L50.6661 141.59L49.6861 142.314L48.6638 143.126L47.6041 144.03L46.5125 145.028L45.3942 146.126L44.2549 147.324L43.1005 148.627L41.9367 150.036L40.7698 151.555L39.606 153.183L38.4517 154.924L37.3132 156.779L37.0319 157.26L36.9618 157.382L36.9267 157.442L36.9269 157.446L38.6377 162.25L38.6396 162.253L38.7052 162.278L38.8363 162.327L39.3586 162.523L41.4128 163.24L43.4077 163.86L45.339 164.386L47.2028 164.825L48.9954 165.182L50.7135 165.462L52.354 165.671L53.9141 165.814L55.3913 165.898L56.7836 165.929L58.089 165.912L59.3061 165.854L60.4337 165.76L61.4709 165.638L62.4172 165.492L63.2723 165.33L64.0364 165.157L64.7098 164.98L65.2933 164.805L65.7878 164.637L66.1949 164.483L66.516 164.349L66.7532 164.24L66.9088 164.162L66.9852 164.12L75.3318 159.154L84.3115 170.814L77.3779 177.615L77.3181 177.678L77.2028 177.809L77.0367 178.01L76.8248 178.286L76.5719 178.641L76.2835 179.076L75.9649 179.595L75.6217 180.201L75.2595 180.896L74.8843 181.681L74.502 182.559L74.1185 183.53L73.74 184.597L73.3728 185.758L73.0229 187.016L72.6968 188.37L72.4007 189.82L72.1409 191.365L71.9238 193.004L71.7556 194.737L71.6425 196.561L71.5908 198.475L71.6067 200.477L71.6961 202.564L71.865 204.733L71.9203 205.288L71.935 205.427L71.9425 205.497L71.9444 205.5L76.1526 208.381L76.1555 208.382L76.2233 208.364L76.3587 208.327L76.896 208.178L78.9797 207.551L80.9577 206.88L82.8297 206.171L84.5956 205.43L86.2555 204.665L87.81 203.882L89.26 203.086L90.6064 202.285L91.8509 201.485L92.9952 200.692L94.0414 199.911L94.9918 199.148L95.8491 198.409L96.6161 197.701L97.2962 197.027L97.8927 196.393L98.4093 195.804L98.85 195.265L99.219 194.78L99.5206 194.354L99.7594 193.99L99.9402 193.693L100.068 193.465L100.148 193.31L100.185 193.232L104.019 184.308L118.137 188.463L116.525 198.041L116.514 198.127L116.498 198.3L116.482 198.561L116.472 198.909L116.476 199.344L116.499 199.866L116.546 200.473L116.625 201.165L116.74 201.94L116.898 202.796L117.104 203.731L117.365 204.742L117.686 205.827L118.072 206.983L118.528 208.206L119.06 209.493L119.672 210.84L120.37 212.243L121.158 213.697L122.041 215.197L123.021 216.739L124.105 218.318L125.294 219.929L126.593 221.564L128.005 223.22L128.376 223.636L128.47 223.741L128.517 223.793L128.52 223.794L133.618 223.651L133.621 223.65L133.665 223.596L133.753 223.486L134.1 223.05L135.417 221.318L136.623 219.612L137.72 217.938L138.714 216.301L139.607 214.706L140.404 213.159L141.11 211.663L141.728 210.224L142.265 208.845L142.724 207.53L143.111 206.284L143.432 205.108L143.691 204.007L143.895 202.982L144.05 202.037L144.16 201.174L144.231 200.394L144.271 199.699L144.285 199.09L144.278 198.568L144.257 198.133L144.229 197.786L144.198 197.527L144.172 197.355L144.156 197.269L142.012 187.796L155.877 182.859Z" fill="white" stroke="#007DFF" stroke-miterlimit="10"/>
</svg>
