<svg width="333" height="333" viewBox="0 0 333 333" fill="none" xmlns="http://www.w3.org/2000/svg">
<path d="M214.282 237.997L218.287 243.853L218.333 243.915L218.421 244.029L218.555 244.192L218.736 244.402L218.968 244.657L219.253 244.954L219.594 245.29L219.993 245.663L220.451 246.069L220.972 246.506L221.556 246.97L222.207 247.459L222.924 247.969L223.711 248.497L224.568 249.039L225.497 249.592L226.499 250.153L227.575 250.718L228.726 251.283L229.953 251.845L231.255 252.401L232.635 252.945L234.091 253.476L235.625 253.988L237.235 254.478L238.923 254.943L240.688 255.379L242.53 255.781L244.447 256.146L245.434 256.313L245.934 256.393L246.186 256.432L246.313 256.451L246.376 256.46L246.408 256.465L246.423 256.467L246.426 256.467L250.449 252.665L250.45 252.662L250.448 252.646L250.445 252.614L250.439 252.55L250.427 252.423L250.403 252.169L250.351 251.665L250.24 250.67L249.983 248.736L249.686 246.875L249.35 245.088L248.982 243.377L248.583 241.741L248.158 240.181L247.71 238.697L247.244 237.289L246.763 235.957L246.271 234.701L245.772 233.52L245.268 232.414L244.765 231.382L244.265 230.423L243.772 229.537L243.289 228.721L242.821 227.976L242.369 227.299L241.939 226.69L241.532 226.145L241.152 225.665L240.802 225.246L240.486 224.886L240.205 224.585L239.964 224.339L239.764 224.146L239.609 224.003L239.5 223.909L239.441 223.86L233.82 219.531L241.641 207.381L247.909 210.704L247.978 210.738L248.109 210.798L248.303 210.881L248.561 210.982L248.885 211.1L249.276 211.231L249.734 211.37L250.26 211.515L250.855 211.661L251.519 211.806L252.252 211.946L253.055 212.076L253.928 212.194L254.87 212.296L255.881 212.378L256.96 212.436L258.108 212.467L259.323 212.467L260.605 212.433L261.952 212.36L263.364 212.247L264.838 212.088L266.374 211.881L267.97 211.622L269.624 211.307L271.335 210.934L273.1 210.5L274.917 210L276.785 209.432L277.736 209.122L278.216 208.96L278.458 208.877L278.578 208.835L278.639 208.814L278.669 208.804L278.684 208.799L278.686 208.797L280.481 203.561L280.481 203.558L280.472 203.545L280.455 203.518L280.42 203.464L280.35 203.357L280.21 203.144L279.931 202.721L279.37 201.892L278.243 200.298L277.115 198.789L275.988 197.362L274.866 196.018L273.752 194.755L272.651 193.571L271.565 192.465L270.498 191.435L269.454 190.48L268.434 189.596L267.443 188.783L266.483 188.037L265.558 187.357L264.67 186.741L263.821 186.185L263.015 185.687L262.254 185.245L261.539 184.856L260.875 184.516L260.262 184.223L259.702 183.974L259.198 183.765L258.75 183.594L258.362 183.458L258.034 183.352L257.767 183.274L257.563 183.22L257.423 183.187L257.348 183.171L250.36 181.95L251.638 167.557L258.732 167.587L258.809 167.585L258.953 167.577L259.163 167.56L259.44 167.53L259.781 167.484L260.188 167.418L260.658 167.328L261.191 167.212L261.786 167.065L262.441 166.885L263.155 166.668L263.927 166.41L264.754 166.109L265.636 165.762L266.569 165.364L267.552 164.914L268.583 164.408L269.659 163.843L270.778 163.217L271.937 162.527L273.134 161.771L274.366 160.945L275.629 160.048L276.922 159.076L278.241 158.029L279.582 156.904L280.943 155.699L282.32 154.412L283.71 153.042L284.408 152.325L284.758 151.958L284.933 151.773L285.021 151.679L285.064 151.633L285.086 151.609L285.097 151.598L285.098 151.595L284.254 146.125L284.253 146.122L284.239 146.115L284.211 146.099L284.155 146.068L284.043 146.005L283.82 145.881L283.376 145.637L282.494 145.164L280.756 144.276L279.056 143.464L277.395 142.725L275.777 142.056L274.204 141.455L272.679 140.918L271.203 140.444L269.78 140.027L268.41 139.667L267.097 139.358L265.842 139.098L264.645 138.884L263.51 138.713L262.437 138.579L261.427 138.482L260.482 138.416L259.603 138.378L258.789 138.365L258.043 138.373L257.364 138.399L256.752 138.438L256.209 138.488L255.734 138.544L255.326 138.604L254.986 138.662L254.714 138.717L254.508 138.764L254.369 138.8L254.295 138.821L247.54 140.988L241.983 127.649L248.279 124.379L248.346 124.341L248.469 124.267L248.648 124.155L248.878 124L249.159 123.8L249.489 123.553L249.863 123.255L250.281 122.904L250.74 122.498L251.236 122.034L251.768 121.51L252.331 120.923L252.924 120.272L253.543 119.554L254.184 118.769L254.846 117.913L255.523 116.986L256.214 115.986L256.913 114.912L257.619 113.762L258.327 112.536L259.034 111.232L259.736 109.85L260.43 108.39L261.111 106.85L261.776 105.23L262.421 103.531L263.042 101.751L263.635 99.8919L263.92 98.9324L264.06 98.4452L264.129 98.1998L264.163 98.0766L264.18 98.0149L264.189 97.984L264.193 97.9686L264.192 97.9657L260.903 93.5142L260.901 93.513L260.885 93.5125L260.853 93.5116L260.788 93.5098L260.661 93.5064L260.406 93.5002L259.899 93.4905L258.898 93.4813L256.947 93.5026L255.063 93.5738L253.249 93.6912L251.506 93.8511L249.834 94.0499L248.234 94.2837L246.707 94.549L245.253 94.842L243.873 95.1589L242.567 95.496L241.334 95.8496L240.175 96.2159L239.09 96.5914L238.078 96.9722L237.139 97.3548L236.271 97.7356L235.475 98.1109L234.749 98.4774L234.092 98.8314L233.502 99.1696L232.979 99.4887L232.521 99.7853L232.126 100.056L231.793 100.298L231.52 100.508L231.304 100.683L231.144 100.82L231.037 100.917L230.981 100.97L226.007 106.028L214.888 96.799L218.942 90.9779L218.984 90.9133L219.06 90.7905L219.165 90.6078L219.297 90.3636L219.453 90.0561L219.63 89.6841L219.823 89.2462L220.03 88.7414L220.248 88.1686L220.472 87.5269L220.698 86.8157L220.925 86.0344L221.147 85.1825L221.361 84.2597L221.565 83.2659L221.752 82.201L221.921 81.0653L222.068 79.859L222.189 78.5826L222.279 77.2365L222.337 75.8216L222.357 74.3388L222.336 72.7889L222.271 71.1733L222.159 69.4933L221.995 67.7501L221.776 65.9456L221.499 64.0813L221.16 62.1593L220.967 61.1772L220.864 60.681L220.811 60.4316L220.784 60.3066L220.771 60.244L220.764 60.2127L220.76 60.197L220.759 60.1947L215.777 57.7817L215.774 57.7818L215.76 57.7889L215.731 57.8029L215.674 57.8311L215.559 57.8875L215.33 58.0004L214.877 58.2273L213.987 58.6843L212.269 59.6101L210.634 60.5484L209.082 61.4953L207.613 62.4472L206.225 63.4002L204.917 64.3508L203.688 65.2954L202.537 66.2304L201.462 67.1524L200.462 68.0579L199.535 68.9438L198.679 69.8066L197.893 70.6433L197.174 71.4508L196.52 72.2262L195.929 72.9665L195.398 73.6689L194.925 74.3309L194.508 74.9498L194.143 75.5232L193.828 76.0488L193.561 76.5242L193.337 76.9475L193.154 77.3166L193.01 77.6296L192.9 77.8849L192.822 78.0809L192.773 78.216L192.748 78.2889L190.694 85.079L176.559 82.0747L177.444 75.036L177.451 74.9593L177.461 74.8157L177.469 74.605L177.473 74.3272L177.468 73.9824L177.452 73.571L177.42 73.0933L177.368 72.5501L177.294 71.9419L177.195 71.2697L177.065 70.5346L176.902 69.7375L176.703 68.8799L176.464 67.9632L176.182 66.9888L175.854 65.9587L175.476 64.8744L175.045 63.7382L174.558 62.5519L174.013 61.3179L173.406 60.0385L172.735 58.7161L171.996 57.3534L171.188 55.953L170.308 54.5177L169.352 53.0504L168.32 51.5543L167.208 50.0323L166.015 48.4877L165.388 47.708L165.066 47.3164L164.903 47.1203L164.821 47.0221L164.78 46.973L164.76 46.9484L164.749 46.9361L164.747 46.9348L159.215 47.1131L159.212 47.1146L159.203 47.1275L159.184 47.1533L159.146 47.205L159.071 47.3083L158.921 47.5145L158.625 47.9259L158.049 48.7445L156.958 50.3627L155.946 51.9531L155.013 53.5126L154.154 55.0384L153.367 56.5274L152.651 57.9769L152.002 59.3844L151.417 60.7472L150.894 62.0631L150.429 63.3297L150.02 64.5448L149.664 65.7064L149.356 66.8127L149.095 67.8619L148.876 68.8524L148.696 69.7826L148.553 70.6513L148.442 71.4571L148.36 72.1992L148.304 72.8764L148.269 73.488L148.253 74.0334L148.252 74.5121L148.261 74.9238L148.279 75.2682L148.301 75.5452L148.323 75.7549L148.341 75.8976L148.353 75.9737L149.69 82.9407L135.778 86.8491L133.291 80.2053L133.262 80.1342L133.203 80.0025L133.113 79.812L132.987 79.5643L132.823 79.2612L132.617 78.9047L132.366 78.4967L132.068 78.0395L131.72 77.5353L131.32 76.9866L130.863 76.3958L130.349 75.7656L129.774 75.0988L129.136 74.3981L128.434 73.6665L127.664 72.907L126.825 72.1226L125.916 71.3167L124.934 70.4924L123.878 69.6531L122.746 68.8023L121.537 67.9433L120.25 67.0799L118.883 66.2155L117.436 65.3538L115.909 64.4985L114.299 63.6535L112.608 62.8225L110.834 62.0092L109.916 61.6105L109.449 61.4133L109.213 61.3153L109.095 61.2664L109.036 61.242L109.006 61.2298L108.992 61.2237L108.989 61.2238L104.173 63.9526L104.172 63.955L104.169 63.9708L104.164 64.0025L104.155 64.0658L104.136 64.1923L104.099 64.4446L104.029 64.9464L103.899 65.9389L103.685 67.8788L103.528 69.757L103.426 71.5719L103.375 73.322L103.371 75.0058L103.41 76.6222L103.489 78.1702L103.605 79.6486L103.753 81.0569L103.93 82.3943L104.133 83.6604L104.357 84.8547L104.599 85.9772L104.855 87.0277L105.121 88.0064L105.395 88.9135L105.671 89.7493L105.948 90.5145L106.22 91.2096L106.484 91.8355L106.738 92.3931L106.977 92.8835L107.199 93.308L107.399 93.6679L107.574 93.9647L107.722 94.1999L107.839 94.3755L107.922 94.4931L107.968 94.5549L112.389 100.103L101.887 110.028L96.5975 105.302L96.5384 105.252L96.4256 105.163L96.2569 105.036L96.0304 104.875L95.744 104.683L95.3959 104.463L94.9846 104.218L94.5084 103.952L93.966 103.667L93.356 103.368L92.6773 103.057L91.929 102.738L91.11 102.415L90.2198 102.09L89.2577 101.769L88.2233 101.454L87.1163 101.149L85.9364 100.858L84.6838 100.585L83.3585 100.333L81.9608 100.105L80.4912 99.9066L78.9502 99.7402L77.3386 99.6098L75.6572 99.5192L73.907 99.4719L72.0892 99.4715L70.2052 99.5218L68.2563 99.6262L67.258 99.6998L66.7531 99.7422L66.4991 99.7647L66.3718 99.7764L66.308 99.7823L66.2761 99.7853L66.2601 99.7868L66.2576 99.7881L63.2618 104.442L63.2616 104.445L63.2669 104.46L63.2773 104.491L63.2984 104.551L63.3405 104.672L63.4251 104.912L63.5957 105.389L63.942 106.329L64.654 108.146L65.3884 109.881L66.1414 111.536L66.9091 113.109L67.6879 114.602L68.474 116.015L69.2635 117.349L70.053 118.605L70.8387 119.783L71.6171 120.884L72.3847 121.911L73.1381 122.865L73.8739 123.746L74.5889 124.558L75.2797 125.3L75.9434 125.976L76.5767 126.588L77.1769 127.137L77.741 127.626L78.2663 128.057L78.75 128.433L79.1897 128.756L79.583 129.029L79.9274 129.255L80.2207 129.436L80.4609 129.576L80.646 129.677L80.7741 129.742L80.8436 129.776L87.3366 132.633L82.6504 146.303L75.7698 144.576L75.6945 144.559L75.5531 144.533L75.3449 144.499L75.0695 144.462L74.7267 144.425L74.3163 144.392L73.8383 144.366L73.2928 144.351L72.6802 144.351L72.0009 144.37L71.2554 144.41L70.4446 144.475L69.5692 144.569L68.6304 144.696L67.6291 144.859L66.5669 145.061L65.445 145.305L64.2651 145.596L63.0288 145.936L61.7381 146.328L60.3949 146.777L59.0012 147.284L57.5594 147.852L56.0718 148.486L54.5408 149.187L52.9691 149.958L51.3594 150.803L49.7146 151.723L48.0374 152.721L47.1877 153.25L46.7603 153.522L46.5459 153.66L46.4386 153.73L46.3849 153.765L46.358 153.782L46.3446 153.791L46.343 153.793L45.8532 159.306L45.8543 159.309L45.866 159.32L45.8894 159.342L45.9361 159.386L46.0295 159.473L46.2162 159.647L46.589 159.99L47.3321 160.661L48.807 161.939L50.2639 163.134L51.6995 164.249L53.1106 165.286L54.4939 166.246L55.8466 167.132L57.1655 167.946L58.448 168.691L59.6912 169.369L60.8925 169.983L62.0494 170.535L63.1596 171.029L64.2208 171.468L65.2308 171.854L66.1877 172.19L67.0895 172.481L67.9345 172.728L68.7212 172.935L69.4479 173.106L70.1134 173.244L70.7164 173.352L71.2559 173.433L71.7309 173.492L72.1408 173.532L72.4847 173.556L72.7623 173.568L72.9732 173.572L73.1171 173.57L73.1941 173.568L80.2715 173.08L82.4744 187.362L75.5793 189.03L75.5051 189.051L75.3674 189.093L75.1674 189.16L74.9063 189.255L74.5856 189.381L74.2068 189.543L73.7717 189.742L73.2819 189.983L72.7394 190.267L72.1464 190.599L71.5049 190.981L70.8173 191.416L70.0861 191.906L69.3136 192.455L68.5027 193.064L67.6559 193.736L66.7762 194.474L65.8665 195.28L64.9299 196.155L63.9694 197.103L62.9883 198.124L61.9899 199.221L60.9776 200.394L59.9548 201.647L58.925 202.979L57.8918 204.392L56.859 205.888L55.8301 207.467L54.809 209.13L54.3024 209.994L54.0504 210.433L53.9247 210.655L53.862 210.767L53.8306 210.822L53.815 210.85L53.8071 210.864L53.8068 210.867L55.9353 215.977L55.9375 215.978L55.9529 215.983L55.9838 215.991L56.0455 216.008L56.1688 216.042L56.4148 216.109L56.9044 216.24L57.8741 216.488L59.774 216.935L61.6197 217.316L63.409 217.636L65.1401 217.898L66.8112 218.106L68.4206 218.261L69.9668 218.369L71.4484 218.433L72.8643 218.455L74.2133 218.441L75.4945 218.392L76.7072 218.314L77.8506 218.209L78.9244 218.081L79.928 217.935L80.8614 217.773L81.7245 217.599L82.5174 217.417L83.2402 217.23L83.8935 217.043L84.4776 216.858L84.9933 216.68L85.4414 216.511L85.8228 216.356L86.1385 216.218L86.3899 216.099L86.5782 216.004L86.705 215.936L86.7719 215.898L92.8122 212.178L101.4 223.8L96.0697 228.481L96.0135 228.534L95.9112 228.635L95.7651 228.787L95.5782 228.993L95.3531 229.254L95.0927 229.573L94.8 229.952L94.4781 230.392L94.1301 230.896L93.7592 231.466L93.3686 232.102L92.9618 232.806L92.5422 233.58L92.1131 234.425L91.6782 235.341L91.2409 236.33L90.805 237.393L90.3739 238.529L89.9514 239.739L89.5412 241.025L89.147 242.385L88.7726 243.82L88.4217 245.329L88.098 246.913L87.8053 248.572L87.5474 250.303L87.328 252.108L87.1508 253.984L87.0195 255.932L86.9723 256.931L86.9534 257.438L86.9452 257.693L86.9415 257.82L86.9396 257.884L86.9388 257.916L86.9383 257.932L86.9394 257.935L91.1984 261.47L91.2013 261.471L91.2169 261.467L91.2482 261.46L91.3108 261.447L91.4357 261.42L91.6846 261.365L92.1789 261.253L93.153 261.022L95.0427 260.534L96.8543 260.015L98.5875 259.467L100.242 258.894L101.818 258.301L103.315 257.691L104.735 257.068L106.076 256.436L107.34 255.798L108.528 255.158L109.64 254.519L110.677 253.886L111.641 253.262L112.532 252.65L113.353 252.054L114.104 251.477L114.788 250.922L115.405 250.392L115.958 249.891L116.45 249.421L116.881 248.987L117.255 248.589L117.573 248.232L117.839 247.917L118.054 247.647L118.222 247.426L118.344 247.254L118.425 247.135L118.466 247.07L122.086 240.969L135.091 247.269L132.547 253.891L132.522 253.964L132.478 254.101L132.419 254.303L132.349 254.572L132.271 254.908L132.189 255.312L132.106 255.783L132.026 256.323L131.952 256.931L131.888 257.607L131.838 258.352L131.805 259.165L131.793 260.045L131.806 260.993L131.847 262.006L131.919 263.085L132.027 264.228L132.173 265.435L132.361 266.703L132.595 268.031L132.878 269.419L133.214 270.864L133.605 272.363L134.054 273.917L134.566 275.521L135.142 277.174L135.786 278.874L136.501 280.618L137.29 282.403L137.713 283.31L137.932 283.767L138.043 283.997L138.099 284.112L138.127 284.169L138.141 284.198L138.148 284.212L138.15 284.214L143.564 285.365L143.567 285.364L143.579 285.354L143.604 285.333L143.653 285.292L143.751 285.21L143.946 285.046L144.332 284.717L145.087 284.06L146.533 282.75L147.896 281.448L149.176 280.157L150.375 278.881L151.495 277.624L152.537 276.388L153.504 275.176L154.398 273.993L155.221 272.841L155.975 271.722L156.663 270.64L157.288 269.598L157.851 268.597L158.356 267.641L158.805 266.732L159.202 265.871L159.549 265.062L159.85 264.306L160.107 263.606L160.324 262.962L160.504 262.376L160.65 261.85L160.766 261.386L160.855 260.984L160.92 260.645L160.966 260.371L160.994 260.162L161.01 260.019L161.017 259.942L161.387 252.858L175.829 252.392L176.654 259.438L176.666 259.514L176.691 259.656L176.733 259.863L176.796 260.133L176.883 260.467L176.998 260.863L177.143 261.319L177.323 261.834L177.54 262.407L177.798 263.035L178.1 263.718L178.449 264.453L178.847 265.238L179.299 266.071L179.806 266.95L180.371 267.871L180.998 268.833L181.688 269.834L182.444 270.869L183.269 271.937L184.164 273.034L185.132 274.157L186.175 275.303L187.295 276.47L188.494 277.653L189.772 278.849L191.133 280.054L192.576 281.266L194.104 282.48L194.9 283.087L195.306 283.39L195.512 283.542L195.615 283.617L195.666 283.655L195.692 283.674L195.705 283.684L195.708 283.684L201.036 282.187L201.038 282.185L201.045 282.17L201.057 282.141L201.081 282.082L201.13 281.963L201.226 281.727L201.415 281.257L201.778 280.324L202.45 278.492L203.052 276.706L203.585 274.968L204.054 273.281L204.461 271.647L204.81 270.068L205.103 268.546L205.345 267.083L205.538 265.68L205.686 264.339L205.792 263.062L205.86 261.848L205.894 260.701L205.897 259.619L205.872 258.605L205.824 257.659L205.755 256.782L205.67 255.972L205.572 255.232L205.465 254.561L205.352 253.959L205.237 253.426L205.124 252.961L205.016 252.563L204.916 252.233L204.829 251.969L204.758 251.771L204.705 251.637L204.676 251.566L201.71 245.121L214.282 237.997Z" fill="white" stroke="#007DFF" stroke-miterlimit="10"/>
</svg>
