<svg width="424" height="424" viewBox="0 0 424 424" fill="none" xmlns="http://www.w3.org/2000/svg">
<path d="M349.738 178.596L350.696 178.365L350.759 178.348L350.863 178.318L351.009 178.273L351.195 178.213L351.421 178.134L351.687 178.037L351.992 177.92L352.334 177.781L352.715 177.619L353.132 177.433L353.586 177.221L354.074 176.982L354.598 176.715L355.154 176.418L355.744 176.091L356.366 175.731L357.018 175.338L357.701 174.911L358.412 174.448L359.151 173.949L359.917 173.411L360.709 172.835L361.525 172.219L362.365 171.562L363.226 170.863L364.109 170.12L365.012 169.334L365.933 168.504L366.871 167.627L367.825 166.705L368.794 165.734L369.775 164.716L370.769 163.649L371.772 162.532L372.785 161.366L373.805 160.148L374.831 158.879L375.861 157.557L376.895 156.184L377.93 154.757L378.188 154.392L378.318 154.208L378.382 154.116L378.415 154.07L378.423 154.058L378.427 154.052L378.426 154.05L376.138 147.832L376.138 147.83L376.131 147.828L376.117 147.825L376.063 147.811L375.953 147.782L375.736 147.726L375.302 147.616L373.589 147.2L371.912 146.824L370.271 146.485L368.667 146.184L367.101 145.917L365.574 145.685L364.086 145.485L362.638 145.316L361.23 145.177L359.864 145.066L358.539 144.982L357.257 144.922L356.017 144.887L354.82 144.873L353.667 144.88L352.557 144.906L351.492 144.95L350.471 145.01L349.495 145.084L348.563 145.171L347.676 145.27L346.835 145.379L346.038 145.495L345.287 145.619L344.58 145.748L343.919 145.881L343.302 146.016L342.731 146.152L342.204 146.286L341.721 146.419L341.283 146.547L340.888 146.671L340.537 146.787L340.229 146.895L339.964 146.994L339.741 147.081L339.56 147.155L339.42 147.215L339.321 147.26L339.262 147.288L338.383 147.733L332.715 137.591L333.554 137.076L333.609 137.04L333.699 136.979L333.824 136.892L333.982 136.776L334.173 136.632L334.396 136.458L334.649 136.252L334.932 136.014L335.244 135.742L335.583 135.436L335.949 135.095L336.34 134.716L336.755 134.301L337.193 133.846L337.653 133.353L338.133 132.819L338.632 132.243L339.149 131.626L339.682 130.966L340.231 130.263L340.793 129.515L341.368 128.722L341.954 127.884L342.55 126.999L343.153 126.068L343.763 125.09L344.379 124.063L344.998 122.989L345.62 121.865L346.242 120.693L346.863 119.471L347.482 118.199L348.097 116.877L348.707 115.505L349.309 114.082L349.903 112.609L350.487 111.085L351.058 109.51L351.617 107.884L352.16 106.207L352.293 105.78L352.359 105.565L352.392 105.458L352.409 105.404L352.413 105.39L352.415 105.384L352.414 105.382L348.316 100.175L348.315 100.173L348.308 100.174L348.294 100.175L348.238 100.178L348.125 100.185L347.901 100.199L347.454 100.228L345.697 100.361L343.985 100.522L342.32 100.707L340.701 100.916L339.13 101.147L337.605 101.398L336.128 101.667L334.699 101.954L333.317 102.257L331.984 102.574L330.698 102.903L329.46 103.242L328.269 103.592L327.127 103.948L326.032 104.312L324.985 104.679L323.986 105.05L323.033 105.422L322.128 105.795L321.268 106.166L320.456 106.534L319.689 106.897L318.967 107.254L318.291 107.604L317.659 107.945L317.071 108.276L316.526 108.595L316.025 108.9L315.565 109.191L315.147 109.466L314.77 109.724L314.432 109.963L314.134 110.183L313.875 110.381L313.653 110.556L313.468 110.708L313.319 110.835L313.204 110.935L313.124 111.008L313.076 111.053L312.378 111.748L303.854 103.854L304.492 103.104L304.533 103.054L304.6 102.968L304.692 102.846L304.807 102.687L304.944 102.491L305.102 102.257L305.279 101.983L305.475 101.669L305.688 101.314L305.916 100.918L306.158 100.48L306.413 99.9996L306.679 99.4759L306.955 98.9085L307.24 98.2969L307.531 97.6406L307.828 96.9393L308.129 96.1925L308.433 95.4L308.737 94.5614L309.041 93.6764L309.343 92.7449L309.641 91.7666L309.934 90.7414L310.22 89.6692L310.498 88.55L310.766 87.3836L311.023 86.1702L311.267 84.9097L311.496 83.6023L311.71 82.2481L311.905 80.8473L312.082 79.4001L312.238 77.9068L312.371 76.3676L312.48 74.7829L312.564 73.1531L312.621 71.4785L312.65 69.7597L312.649 67.9972L312.643 67.5498L312.64 67.325L312.638 67.2124L312.637 67.1561L312.637 67.142L312.637 67.1349L312.635 67.1336L307.129 63.4477L307.127 63.4466L307.121 63.4492L307.108 63.4543L307.055 63.4749L306.95 63.5161L306.741 63.5986L306.326 63.7643L304.695 64.4346L303.117 65.1159L301.591 65.8068L300.116 66.5056L298.692 67.2107L297.32 67.9205L295.999 68.6335L294.728 69.3482L293.508 70.0628L292.337 70.7761L291.216 71.4864L290.143 72.1922L289.119 72.892L288.143 73.5845L287.214 74.2681L286.332 74.9414L285.496 75.6029L284.705 76.2514L283.959 76.8854L283.256 77.5036L282.597 78.1046L281.98 78.6871L281.404 79.2499L280.869 79.7917L280.373 80.3113L279.916 80.8074L279.497 81.2789L279.114 81.7247L278.767 82.1435L278.454 82.5343L278.175 82.8961L277.928 83.2278L277.713 83.5284L277.527 83.7969L277.37 84.0323L277.241 84.2338L277.138 84.4005L277.061 84.5315L277.007 84.6261L276.975 84.6833L276.526 85.5596L265.979 80.6865L266.355 79.7762L266.379 79.7152L266.416 79.6129L266.465 79.4688L266.525 79.2825L266.595 79.0535L266.673 78.7815L266.757 78.4662L266.846 78.1071L266.939 77.7042L267.033 77.2571L267.128 76.7658L267.222 76.23L267.314 75.6496L267.401 75.0246L267.483 74.355L267.557 73.6408L267.623 72.882L267.678 72.0788L267.722 71.2313L267.752 70.3397L267.768 69.4041L267.767 68.4249L267.748 67.4024L267.71 66.3368L267.651 65.2286L267.57 64.0782L267.464 62.8861L267.334 61.6527L267.176 60.3785L266.99 59.0643L266.775 57.7104L266.528 56.3177L266.248 54.8868L265.935 53.4185L265.586 51.9134L265.201 50.3724L264.777 48.7964L264.314 47.1862L263.81 45.5427L263.264 43.8668L263.12 43.443L263.048 43.2303L263.011 43.1238L262.993 43.0705L262.988 43.0571L262.986 43.0505L262.984 43.0497L256.608 41.2456L256.606 41.2452L256.601 41.2497L256.59 41.2586L256.546 41.2944L256.459 41.366L256.286 41.5091L255.942 41.7951L254.599 42.9363L253.308 44.072L252.07 45.2008L250.883 46.3211L249.748 47.4315L248.662 48.5307L247.625 49.6171L246.638 50.6894L245.698 51.7463L244.805 52.7864L243.958 53.8084L243.156 54.8111L242.398 55.7932L241.684 56.7534L241.012 57.6905L240.381 58.6034L239.79 59.491L239.238 60.3521L238.724 61.1857L238.247 61.9907L237.806 62.766L237.399 63.5107L237.026 64.2239L236.684 64.9046L236.373 65.5519L236.092 66.165L235.839 66.743L235.612 67.2852L235.412 67.7908L235.235 68.2591L235.081 68.6895L234.949 69.0812L234.837 69.4337L234.743 69.7464L234.667 70.0188L234.606 70.2503L234.56 70.4406L234.527 70.5892L234.505 70.6958L234.493 70.7599L234.336 71.7323L222.8 70.3567L222.876 69.3747L222.879 69.3096L222.883 69.2008L222.885 69.0485L222.885 68.8527L222.881 68.6134L222.871 68.3307L222.853 68.0047L222.827 67.6357L222.791 67.2239L222.742 66.7695L222.681 66.2728L222.605 65.7342L222.512 65.154L222.402 64.5326L222.273 63.8705L222.123 63.1683L221.951 62.4264L221.756 61.6453L221.535 60.8258L221.288 59.9684L221.014 59.0739L220.711 58.1429L220.377 57.1762L220.011 56.1745L219.613 55.1388L219.18 54.0699L218.711 52.9686L218.206 51.836L217.662 50.6729L217.079 49.4804L216.456 48.2594L215.791 47.0112L215.083 45.7366L214.331 44.437L213.534 43.1134L212.691 41.767L211.801 40.399L210.863 39.0107L209.876 37.6034L208.839 36.1783L208.572 35.8195L208.437 35.6397L208.369 35.5496L208.335 35.5046L208.327 35.4934L208.323 35.4877L208.321 35.4877L201.699 35.742L201.697 35.7423L201.694 35.7482L201.686 35.7601L201.656 35.8076L201.595 35.9025L201.474 36.0921L201.236 36.4705L200.311 37.9709L199.434 39.4498L198.606 40.906L197.823 42.3382L197.086 43.7453L196.393 45.1261L195.743 46.4796L195.135 47.8047L194.568 49.1003L194.04 50.3655L193.55 51.5992L193.097 52.8006L192.68 53.9687L192.298 55.1026L191.948 56.2016L191.63 57.2648L191.342 58.2915L191.084 59.281L190.853 60.2326L190.648 61.1455L190.468 62.0193L190.311 62.8533L190.176 63.647L190.061 64.4L189.966 65.1117L189.888 65.7817L189.825 66.4097L189.778 66.9952L189.743 67.5381L189.72 68.0381L189.707 68.4948L189.702 68.9083L189.704 69.2782L189.712 69.6045L189.723 69.8871L189.737 70.1261L189.752 70.3214L189.766 70.473L189.778 70.5812L189.787 70.6459L189.938 71.6191L178.541 73.8757L178.311 72.9182L178.294 72.8552L178.263 72.7507L178.219 72.6051L178.158 72.4189L178.08 72.1926L177.983 71.9269L177.865 71.6223L177.727 71.2795L177.565 70.8991L177.378 70.4818L177.166 70.0284L176.928 69.5397L176.66 69.0164L176.364 68.4595L176.036 67.8698L175.676 67.2483L175.284 66.5958L174.856 65.9134L174.394 65.2021L173.894 64.4629L173.357 63.6969L172.78 62.9052L172.164 62.089L171.507 61.2493L170.808 60.3875L170.066 59.5046L169.28 58.6021L168.449 57.6811L167.573 56.7429L166.65 55.7888L165.68 54.8203L164.661 53.8386L163.594 52.8452L162.478 51.8415L161.311 50.8289L160.093 49.8089L158.824 48.7829L157.503 47.7525L156.129 46.7191L154.702 45.6843L154.337 45.4255L154.153 45.2962L154.061 45.2315L154.015 45.1992L154.003 45.1911L153.998 45.1871L153.996 45.1876L147.777 47.4755L147.775 47.4764L147.774 47.4832L147.77 47.4969L147.756 47.5514L147.728 47.6604L147.671 47.8781L147.561 48.3117L147.145 50.0245L146.769 51.7018L146.431 53.3428L146.129 54.9467L145.863 56.5127L145.63 58.0401L145.431 59.5282L145.262 60.9763L145.123 62.3838L145.012 63.7502L144.927 65.0749L144.868 66.3573L144.832 67.5971L144.818 68.7939L144.826 69.9471L144.852 71.0566L144.895 72.1219L144.955 73.1429L145.029 74.1192L145.117 75.0508L145.215 75.9375L145.324 76.7792L145.441 77.5758L145.565 78.3273L145.694 79.0337L145.826 79.695L145.961 80.3115L146.097 80.8831L146.232 81.4102L146.364 81.8928L146.493 82.3313L146.616 82.7259L146.732 83.077L146.841 83.385L146.939 83.6502L147.026 83.8732L147.1 84.0543L147.161 84.1942L147.206 84.2934L147.233 84.3524L147.678 85.2312L137.537 90.899L137.021 90.0598L136.986 90.0051L136.925 89.915L136.837 89.7904L136.722 89.632L136.578 89.441L136.403 89.2183L136.197 88.9648L135.959 88.6817L135.688 88.3699L135.382 88.0306L135.04 87.6649L134.662 87.274L134.246 86.8589L133.792 86.421L133.298 85.9613L132.764 85.4813L132.189 84.9822L131.571 84.4652L130.911 83.9317L130.208 83.3831L129.46 82.8206L128.668 82.2458L127.829 81.6599L126.945 81.0644L126.014 80.4608L125.035 79.8505L124.009 79.235L122.934 78.6157L121.811 77.9943L120.638 77.3721L119.416 76.7508L118.144 76.1318L116.822 75.5168L115.45 74.9073L114.028 74.3048L112.554 73.711L111.03 73.1274L109.455 72.5557L107.829 71.9974L106.153 71.4541L105.725 71.3209L105.511 71.2546L105.403 71.2216L105.349 71.2051L105.336 71.201L105.329 71.1989L105.327 71.2001L100.12 75.2976L100.119 75.299L100.119 75.3061L100.12 75.3201L100.123 75.3764L100.13 75.4889L100.144 75.7132L100.173 76.1597L100.307 77.9171L100.467 79.6287L100.652 81.2939L100.861 82.9125L101.092 84.4841L101.343 86.0086L101.613 87.4855L101.9 88.9149L102.202 90.2966L102.519 91.6304L102.848 92.9164L103.188 94.1544L103.537 95.3445L103.894 96.4869L104.257 97.5815L104.625 98.6286L104.995 99.6283L105.368 100.581L105.74 101.486L106.111 102.345L106.479 103.158L106.842 103.925L107.2 104.647L107.549 105.323L107.89 105.955L108.221 106.543L108.54 107.088L108.846 107.589L109.137 108.049L109.412 108.467L109.67 108.844L109.909 109.182L110.128 109.48L110.326 109.739L110.501 109.961L110.653 110.146L110.78 110.295L110.88 110.41L110.954 110.49L110.998 110.538L111.693 111.236L103.799 119.76L103.05 119.122L102.999 119.081L102.913 119.014L102.791 118.922L102.633 118.807L102.437 118.67L102.202 118.512L101.928 118.335L101.614 118.139L101.259 117.926L100.864 117.698L100.426 117.456L99.945 117.201L99.4213 116.935L98.8539 116.659L98.2422 116.374L97.586 116.083L96.8847 115.786L96.1379 115.485L95.3454 115.181L94.5068 114.877L93.6218 114.573L92.6902 114.271L91.712 113.973L90.6868 113.68L89.6146 113.394L88.4953 113.116L87.329 112.848L86.1155 112.591L84.8551 112.347L83.5477 112.117L82.1935 111.904L80.7927 111.709L79.3455 111.532L77.8522 111.376L76.313 111.243L74.7283 111.134L73.0984 111.05L71.4239 110.992L69.7051 110.964L67.9425 110.965L67.4951 110.971L67.2704 110.974L67.1578 110.976L67.1014 110.977L67.0873 110.977L67.0803 110.977L67.079 110.979L63.393 116.485L63.392 116.487L63.3946 116.493L63.3997 116.506L63.4203 116.559L63.4615 116.664L63.544 116.873L63.7096 117.288L64.3799 118.919L65.0613 120.497L65.7522 122.023L66.451 123.498L67.1561 124.921L67.8659 126.294L68.5789 127.615L69.2935 128.886L70.0082 130.106L70.7215 131.277L71.4317 132.398L72.1376 133.471L72.8374 134.495L73.5299 135.471L74.2134 136.4L74.8867 137.282L75.5483 138.118L76.1968 138.909L76.8308 139.655L77.4489 140.358L78.0499 141.017L78.6325 141.634L79.1953 142.21L79.7371 142.745L80.2566 143.241L80.7528 143.698L81.2243 144.117L81.67 144.5L82.0889 144.847L82.4797 145.16L82.8415 145.439L83.1732 145.686L83.4737 145.901L83.7422 146.087L83.9777 146.244L84.1792 146.373L84.3459 146.476L84.4769 146.553L84.5714 146.607L84.6287 146.639L85.505 147.088L80.6319 157.635L79.7215 157.259L79.6606 157.235L79.5583 157.198L79.4142 157.149L79.2279 157.089L78.9989 157.019L78.7269 156.941L78.4115 156.857L78.0525 156.768L77.6496 156.675L77.2025 156.581L76.7111 156.486L76.1753 156.392L75.5949 156.3L74.97 156.213L74.3004 156.131L73.5862 156.057L72.8274 155.991L72.0242 155.936L71.1767 155.892L70.285 155.862L69.3495 155.846L68.3703 155.847L67.3477 155.866L66.2822 155.904L65.174 155.963L64.0236 156.044L62.8314 156.15L61.598 156.28L60.3239 156.438L59.0096 156.624L57.6558 156.839L56.2631 157.086L54.8322 157.366L53.3638 157.679L51.8588 158.028L50.3178 158.413L48.7418 158.837L47.1315 159.3L45.488 159.804L43.8122 160.35L43.3883 160.494L43.1756 160.566L43.0691 160.603L43.0158 160.621L43.0025 160.626L42.9958 160.628L42.9951 160.63L41.191 167.006L41.1906 167.008L41.1951 167.013L41.204 167.024L41.2398 167.068L41.3114 167.155L41.4544 167.328L41.7404 167.672L42.8816 169.015L44.0174 170.306L45.1461 171.544L46.2665 172.731L47.3769 173.866L48.476 174.952L49.5625 175.988L50.6348 176.976L51.6917 177.916L52.7318 178.809L53.7538 179.656L54.7565 180.458L55.7385 181.216L56.6987 181.93L57.6359 182.602L58.5488 183.233L59.4364 183.824L60.2975 184.376L61.1311 184.889L61.936 185.366L62.7114 185.808L63.4561 186.215L64.1693 186.588L64.85 186.93L65.4973 187.241L66.1104 187.522L66.6884 187.775L67.2306 188.002L67.7362 188.202L68.2045 188.379L68.6348 188.533L69.0266 188.665L69.3791 188.777L69.6918 188.871L69.9641 188.947L70.1957 189.007L70.386 189.054L70.5346 189.087L70.6412 189.109L70.7053 189.121L71.6776 189.278L70.302 200.814L69.3201 200.738L69.2549 200.735L69.1462 200.731L68.9939 200.729L68.798 200.729L68.5587 200.733L68.276 200.743L67.9501 200.761L67.5811 200.787L67.1693 200.823L66.7148 200.872L66.2182 200.933L65.6795 201.009L65.0993 201.102L64.478 201.212L63.8159 201.341L63.1137 201.491L62.3717 201.663L61.5907 201.858L60.7712 202.079L59.9138 202.325L59.0192 202.6L58.0882 202.903L57.1215 203.237L56.1199 203.603L55.0842 204.001L54.0153 204.434L52.914 204.903L51.7813 205.408L50.6183 205.952L49.4257 206.535L48.2048 207.158L46.9565 207.823L45.682 208.531L44.3824 209.283L43.0587 210.08L41.7123 210.922L40.3444 211.812L38.9561 212.751L37.5488 213.738L36.1237 214.775L35.7648 215.042L35.585 215.177L35.495 215.245L35.45 215.279L35.4387 215.287L35.4331 215.291L35.433 215.293L35.6874 221.914L35.6876 221.917L35.6935 221.92L35.7054 221.928L35.7529 221.958L35.8479 222.019L36.0375 222.14L36.4158 222.378L37.9163 223.303L39.3952 224.18L40.8513 225.008L42.2835 225.791L43.6906 226.528L45.0715 227.221L46.425 227.871L47.75 228.479L49.0457 229.046L50.3108 229.574L51.5446 230.064L52.7459 230.516L53.914 230.934L55.048 231.316L56.147 231.666L57.2102 231.984L58.2369 232.271L59.2264 232.53L60.1779 232.761L61.0909 232.966L61.9647 233.146L62.7987 233.303L63.5924 233.438L64.3453 233.553L65.057 233.648L65.7271 233.726L66.355 233.789L66.9406 233.836L67.4835 233.871L67.9834 233.894L68.4402 233.907L68.8536 233.912L69.2235 233.91L69.5499 233.902L69.8325 233.89L70.0714 233.877L70.2667 233.862L70.4184 233.848L70.5265 233.836L70.5913 233.827L71.5645 233.676L73.821 245.073L72.8636 245.303L72.8006 245.32L72.696 245.351L72.5504 245.395L72.3643 245.456L72.138 245.534L71.8723 245.631L71.5677 245.748L71.2248 245.887L70.8444 246.049L70.4271 246.236L69.9738 246.448L69.485 246.686L68.9618 246.954L68.4049 247.25L67.8152 247.578L67.1936 247.938L66.5412 248.33L65.8588 248.758L65.1474 249.22L64.4082 249.72L63.6423 250.257L62.8506 250.834L62.0343 251.45L61.1947 252.107L60.3328 252.806L59.45 253.548L58.5474 254.334L57.6264 255.165L56.6882 256.041L55.7342 256.964L54.7657 257.934L53.784 258.952L52.7906 260.02L51.7869 261.136L50.7743 262.303L49.7543 263.521L48.7283 264.79L47.6979 266.111L46.6645 267.485L45.6297 268.912L45.3709 269.277L45.2416 269.461L45.1769 269.553L45.1445 269.599L45.1365 269.61L45.1324 269.616L45.133 269.618L47.4209 275.837L47.4218 275.839L47.4286 275.84L47.4422 275.844L47.4968 275.858L47.6058 275.886L47.8234 275.942L48.2571 276.053L49.9698 276.469L51.6472 276.845L53.2882 277.183L54.8921 277.485L56.4581 277.751L57.9855 277.983L59.4735 278.183L60.9217 278.352L62.3292 278.491L63.6956 278.602L65.0202 278.687L66.3027 278.746L67.5425 278.782L68.7392 278.795L69.8925 278.788L71.0019 278.762L72.0673 278.719L73.0882 278.659L74.0646 278.584L74.9962 278.497L75.8829 278.399L76.7246 278.29L77.5212 278.173L78.2726 278.049L78.979 277.92L79.6404 277.788L80.2568 277.653L80.8285 277.517L81.3555 277.382L81.8382 277.25L82.2766 277.121L82.6713 276.998L83.0224 276.881L83.3304 276.773L83.5956 276.675L83.8186 276.588L83.9997 276.514L84.1396 276.453L84.2387 276.408L84.2977 276.38L85.1765 275.936L90.8444 286.077L90.0052 286.593L89.9505 286.628L89.8604 286.689L89.7357 286.777L89.5774 286.892L89.3864 287.036L89.1637 287.211L88.9102 287.416L88.6271 287.655L88.3153 287.926L87.976 288.232L87.6103 288.574L87.2193 288.952L86.8043 289.368L86.3663 289.822L85.9067 290.316L85.4267 290.85L84.9275 291.425L84.4106 292.043L83.8771 292.702L83.3284 293.406L82.766 294.154L82.1911 294.946L81.6052 295.785L81.0098 296.669L80.4061 297.6L79.7958 298.579L79.1803 299.605L78.5611 300.68L77.9396 301.803L77.3175 302.976L76.6961 304.198L76.0772 305.47L75.4622 306.792L74.8526 308.164L74.2502 309.586L73.6564 311.06L73.0728 312.584L72.5011 314.159L71.9428 315.785L71.3995 317.461L71.2662 317.888L71.2 318.103L71.167 318.211L71.1505 318.265L71.1464 318.278L71.1443 318.285L71.1455 318.287L75.243 323.494L75.2444 323.495L75.2514 323.495L75.2655 323.494L75.3218 323.491L75.4342 323.484L75.6585 323.47L76.105 323.441L77.8625 323.307L79.574 323.147L81.2393 322.962L82.8579 322.753L84.4295 322.522L85.9539 322.271L87.4309 322.001L88.8603 321.714L90.242 321.412L91.5758 321.095L92.8617 320.766L94.0998 320.426L95.2899 320.077L96.4323 319.72L97.5269 319.357L98.5739 318.989L99.5736 318.618L100.526 318.246L101.432 317.874L102.291 317.503L103.104 317.135L103.871 316.772L104.592 316.414L105.269 316.065L105.9 315.724L106.488 315.393L107.033 315.074L107.535 314.768L107.994 314.477L108.412 314.202L108.79 313.944L109.127 313.705L109.425 313.486L109.684 313.288L109.906 313.113L110.091 312.961L110.241 312.834L110.355 312.733L110.436 312.66L110.483 312.615L111.181 311.921L119.706 319.815L119.067 320.564L119.026 320.615L118.959 320.701L118.868 320.823L118.753 320.981L118.616 321.177L118.458 321.412L118.28 321.686L118.084 322L117.872 322.354L117.644 322.75L117.401 323.188L117.146 323.669L116.88 324.193L116.604 324.76L116.32 325.372L116.028 326.028L115.731 326.729L115.43 327.476L115.127 328.269L114.822 329.107L114.518 329.992L114.217 330.924L113.919 331.902L113.626 332.927L113.339 333.999L113.061 335.119L112.793 336.285L112.536 337.498L112.292 338.759L112.063 340.066L111.85 341.42L111.654 342.821L111.477 344.268L111.322 345.762L111.188 347.301L111.079 348.886L110.995 350.516L110.938 352.19L110.909 353.909L110.911 355.671L110.916 356.119L110.919 356.344L110.921 356.456L110.922 356.513L110.922 356.527L110.923 356.534L110.924 356.535L116.43 360.221L116.432 360.222L116.439 360.219L116.452 360.214L116.504 360.194L116.609 360.152L116.818 360.07L117.234 359.904L118.864 359.234L120.442 358.553L121.969 357.862L123.443 357.163L124.867 356.458L126.239 355.748L127.56 355.035L128.831 354.32L130.052 353.606L131.222 352.892L132.344 352.182L133.416 351.476L134.44 350.777L135.416 350.084L136.345 349.4L137.227 348.727L138.064 348.066L138.854 347.417L139.601 346.783L140.303 346.165L140.962 345.564L141.579 344.981L142.155 344.419L142.69 343.877L143.186 343.357L143.643 342.861L144.063 342.39L144.445 341.944L144.792 341.525L145.105 341.134L145.384 340.772L145.631 340.441L145.847 340.14L146.032 339.872L146.189 339.636L146.318 339.435L146.421 339.268L146.499 339.137L146.553 339.042L146.584 338.985L147.034 338.109L157.58 342.982L157.204 343.892L157.181 343.953L157.144 344.056L157.094 344.2L157.034 344.386L156.964 344.615L156.886 344.887L156.802 345.202L156.713 345.561L156.621 345.964L156.526 346.411L156.431 346.903L156.337 347.439L156.246 348.019L156.158 348.644L156.077 349.314L156.002 350.028L155.937 350.787L155.881 351.59L155.837 352.437L155.807 353.329L155.792 354.264L155.792 355.244L155.811 356.266L155.849 357.332L155.908 358.44L155.99 359.59L156.095 360.783L156.226 362.016L156.383 363.29L156.569 364.604L156.785 365.958L157.032 367.351L157.311 368.782L157.624 370.25L157.973 371.755L158.359 373.296L158.783 374.872L159.246 376.482L159.75 378.126L160.296 379.802L160.439 380.226L160.512 380.438L160.548 380.545L160.567 380.598L160.571 380.611L160.573 380.618L160.575 380.619L166.951 382.423L166.953 382.423L166.958 382.419L166.969 382.41L167.013 382.374L167.1 382.303L167.273 382.16L167.617 381.874L168.961 380.732L170.251 379.597L171.489 378.468L172.676 377.347L173.812 376.237L174.898 375.138L175.934 374.051L176.922 372.979L177.862 371.922L178.755 370.882L179.602 369.86L180.403 368.857L181.161 367.875L181.875 366.915L182.547 365.978L183.178 365.065L183.769 364.178L184.321 363.316L184.835 362.483L185.312 361.678L185.753 360.903L186.16 360.158L186.534 359.445L186.875 358.764L187.186 358.117L187.468 357.504L187.721 356.926L187.947 356.383L188.148 355.878L188.324 355.409L188.478 354.979L188.61 354.587L188.722 354.235L188.816 353.922L188.892 353.65L188.953 353.418L188.999 353.228L189.033 353.079L189.055 352.973L189.067 352.909L189.223 351.936L200.76 353.312L200.683 354.294L200.68 354.359L200.676 354.468L200.674 354.62L200.674 354.816L200.679 355.055L200.689 355.338L200.706 355.664L200.732 356.033L200.769 356.445L200.817 356.899L200.878 357.396L200.955 357.934L201.047 358.515L201.157 359.136L201.286 359.798L201.436 360.5L201.608 361.242L201.804 362.023L202.024 362.843L202.271 363.7L202.545 364.595L202.849 365.526L203.182 366.492L203.548 367.494L203.946 368.53L204.379 369.599L204.848 370.7L205.353 371.833L205.897 372.996L206.48 374.188L207.103 375.409L207.768 376.657L208.476 377.932L209.228 379.232L210.025 380.555L210.868 381.902L211.758 383.27L212.696 384.658L213.683 386.065L214.72 387.49L214.988 387.849L215.122 388.029L215.19 388.119L215.224 388.164L215.232 388.175L215.237 388.181L215.239 388.181L221.86 387.927L221.862 387.926L221.866 387.92L221.873 387.908L221.904 387.861L221.964 387.766L222.085 387.576L222.324 387.198L223.249 385.698L224.125 384.219L224.954 382.763L225.736 381.33L226.473 379.923L227.166 378.542L227.816 377.189L228.424 375.864L228.992 374.568L229.519 373.303L230.009 372.069L230.462 370.868L230.879 369.7L231.262 368.566L231.611 367.467L231.929 366.404L232.217 365.377L232.475 364.388L232.707 363.436L232.911 362.523L233.092 361.649L233.248 360.815L233.383 360.022L233.498 359.269L233.594 358.557L233.672 357.887L233.734 357.259L233.782 356.673L233.816 356.13L233.839 355.63L233.853 355.174L233.857 354.76L233.855 354.39L233.847 354.064L233.836 353.781L233.822 353.542L233.807 353.347L233.793 353.196L233.781 353.087L233.773 353.023L233.621 352.049L245.018 349.793L245.249 350.75L245.266 350.813L245.296 350.918L245.341 351.063L245.401 351.25L245.48 351.476L245.577 351.742L245.694 352.046L245.833 352.389L245.995 352.77L246.181 353.187L246.393 353.64L246.632 354.129L246.899 354.652L247.196 355.209L247.523 355.799L247.883 356.42L248.276 357.073L248.703 357.755L249.166 358.467L249.665 359.206L250.203 359.972L250.779 360.763L251.395 361.58L252.052 362.419L252.751 363.281L253.494 364.164L254.279 365.067L255.11 365.988L255.987 366.926L256.909 367.88L257.88 368.848L258.898 369.83L259.965 370.823L261.082 371.827L262.248 372.84L263.466 373.86L264.735 374.886L266.057 375.916L267.43 376.949L268.857 377.984L269.222 378.243L269.406 378.372L269.498 378.437L269.544 378.469L269.556 378.478L269.562 378.482L269.564 378.481L275.782 376.193L275.784 376.192L275.786 376.185L275.789 376.172L275.803 376.117L275.832 376.008L275.888 375.791L275.998 375.357L276.414 373.644L276.79 371.967L277.129 370.326L277.43 368.722L277.697 367.156L277.929 365.628L278.129 364.14L278.297 362.692L278.437 361.285L278.548 359.918L278.632 358.594L278.692 357.311L278.727 356.071L278.741 354.875L278.734 353.721L278.708 352.612L278.664 351.547L278.604 350.526L278.53 349.549L278.443 348.618L278.344 347.731L278.235 346.889L278.118 346.093L277.995 345.341L277.866 344.635L277.733 343.974L277.598 343.357L277.462 342.785L277.328 342.258L277.195 341.776L277.067 341.337L276.943 340.943L276.827 340.592L276.719 340.284L276.62 340.018L276.533 339.795L276.459 339.614L276.399 339.474L276.354 339.375L276.326 339.316L275.881 338.437L286.023 332.77L286.538 333.609L286.574 333.663L286.635 333.754L286.722 333.878L286.838 334.037L286.982 334.228L287.156 334.45L287.362 334.704L287.6 334.987L287.871 335.299L288.178 335.638L288.519 336.004L288.897 336.395L289.313 336.81L289.768 337.248L290.261 337.707L290.795 338.187L291.371 338.686L291.988 339.203L292.648 339.737L293.351 340.285L294.099 340.848L294.892 341.423L295.73 342.009L296.615 342.604L297.546 343.208L298.524 343.818L299.551 344.434L300.625 345.053L301.749 345.674L302.921 346.296L304.143 346.918L305.415 347.537L306.737 348.152L308.109 348.761L309.532 349.364L311.005 349.958L312.529 350.541L314.104 351.113L315.73 351.671L317.407 352.214L317.834 352.348L318.049 352.414L318.156 352.447L318.21 352.463L318.224 352.468L318.23 352.47L318.232 352.468L323.439 348.371L323.441 348.37L323.44 348.363L323.439 348.348L323.436 348.292L323.429 348.18L323.415 347.955L323.386 347.509L323.253 345.751L323.092 344.04L322.907 342.375L322.698 340.756L322.467 339.184L322.216 337.66L321.946 336.183L321.66 334.754L321.357 333.372L321.04 332.038L320.711 330.752L320.372 329.514L320.022 328.324L319.665 327.182L319.302 326.087L318.935 325.04L318.564 324.04L318.191 323.088L317.819 322.182L317.448 321.323L317.08 320.51L316.717 319.743L316.36 319.022L316.01 318.345L315.669 317.713L315.338 317.125L315.019 316.581L314.714 316.079L314.423 315.62L314.148 315.202L313.89 314.824L313.651 314.487L313.431 314.189L313.233 313.93L313.058 313.708L312.906 313.523L312.779 313.373L312.679 313.259L312.606 313.178L312.561 313.131L311.866 312.433L319.76 303.908L320.51 304.547L320.56 304.588L320.646 304.655L320.768 304.746L320.927 304.861L321.123 304.998L321.357 305.156L321.631 305.334L321.945 305.53L322.3 305.742L322.696 305.97L323.134 306.213L323.614 306.468L324.138 306.734L324.705 307.01L325.317 307.294L325.973 307.586L326.675 307.883L327.421 308.184L328.214 308.487L329.053 308.792L329.938 309.095L330.869 309.397L331.847 309.695L332.873 309.988L333.945 310.275L335.064 310.553L336.23 310.821L337.444 311.078L338.704 311.322L340.012 311.551L341.366 311.764L342.767 311.96L344.214 312.136L345.707 312.292L347.246 312.426L348.831 312.535L350.461 312.619L352.135 312.676L353.854 312.705L355.617 312.703L356.064 312.698L356.289 312.695L356.402 312.693L356.458 312.692L356.472 312.691L356.479 312.691L356.48 312.69L360.166 307.184L360.167 307.182L360.165 307.175L360.16 307.162L360.139 307.11L360.098 307.005L360.015 306.796L359.85 306.38L359.179 304.75L358.498 303.172L357.807 301.645L357.108 300.171L356.403 298.747L355.693 297.375L354.98 296.054L354.266 294.783L353.551 293.562L352.838 292.392L352.128 291.27L351.422 290.198L350.722 289.174L350.029 288.198L349.346 287.269L348.673 286.387L348.011 285.55L347.363 284.76L346.729 284.013L346.11 283.311L345.509 282.652L344.927 282.034L344.364 281.459L343.822 280.924L343.303 280.428L342.807 279.971L342.335 279.551L341.889 279.169L341.47 278.822L341.08 278.509L340.718 278.23L340.386 277.983L340.086 277.767L339.817 277.582L339.582 277.425L339.38 277.296L339.213 277.193L339.082 277.115L338.988 277.061L338.931 277.03L338.054 276.58L342.927 266.034L343.838 266.41L343.899 266.433L344.001 266.47L344.145 266.52L344.331 266.58L344.56 266.65L344.832 266.727L345.148 266.812L345.507 266.901L345.91 266.993L346.357 267.088L346.848 267.183L347.384 267.277L347.964 267.368L348.589 267.456L349.259 267.537L349.973 267.612L350.732 267.677L351.535 267.733L352.383 267.777L353.274 267.807L354.21 267.822L355.189 267.822L356.212 267.803L357.277 267.765L358.385 267.706L359.536 267.624L360.728 267.519L361.961 267.388L363.235 267.231L364.55 267.045L365.904 266.829L367.296 266.582L368.727 266.303L370.195 265.99L371.701 265.641L373.242 265.255L374.818 264.831L376.428 264.368L378.071 263.864L379.747 263.318L380.171 263.175L380.384 263.102L380.49 263.066L380.544 263.047L380.557 263.043L380.563 263.04L380.564 263.039L382.368 256.663L382.369 256.661L382.364 256.656L382.355 256.645L382.32 256.601L382.248 256.514L382.105 256.341L381.819 255.997L380.678 254.653L379.542 253.363L378.413 252.125L377.293 250.938L376.182 249.802L375.083 248.716L373.997 247.68L372.925 246.692L371.868 245.752L370.828 244.859L369.805 244.012L368.803 243.211L367.821 242.453L366.861 241.739L365.923 241.066L365.011 240.436L364.123 239.845L363.262 239.293L362.428 238.779L361.623 238.302L360.848 237.861L360.103 237.454L359.39 237.08L358.709 236.739L358.062 236.428L357.449 236.146L356.871 235.893L356.329 235.667L355.823 235.466L355.355 235.29L354.924 235.136L354.533 235.004L354.18 234.892L353.868 234.798L353.595 234.722L353.364 234.661L353.173 234.615L353.025 234.581L352.918 234.559L352.854 234.547L351.882 234.391L353.257 222.854L354.239 222.931L354.304 222.934L354.413 222.938L354.565 222.94L354.761 222.94L355.001 222.935L355.283 222.925L355.609 222.908L355.978 222.882L356.39 222.845L356.844 222.797L357.341 222.736L357.88 222.659L358.46 222.567L359.081 222.457L359.743 222.328L360.446 222.178L361.188 222.006L361.969 221.81L362.788 221.59L363.646 221.343L364.54 221.069L365.471 220.765L366.438 220.432L367.439 220.066L368.475 219.667L369.544 219.235L370.645 218.766L371.778 218.26L372.941 217.717L374.134 217.134L375.355 216.511L376.603 215.846L377.877 215.138L379.177 214.386L380.501 213.589L381.847 212.746L383.215 211.856L384.603 210.918L386.011 209.931L387.436 208.894L387.794 208.626L387.974 208.492L388.064 208.424L388.109 208.39L388.121 208.381L388.126 208.377L388.126 208.375L387.872 201.754L387.872 201.752L387.866 201.748L387.854 201.741L387.806 201.71L387.711 201.65L387.522 201.529L387.143 201.29L385.643 200.365L384.164 199.489L382.708 198.66L381.276 197.878L379.869 197.141L378.488 196.448L377.134 195.798L375.809 195.19L374.514 194.622L373.248 194.095L372.015 193.605L370.813 193.152L369.645 192.735L368.511 192.352L367.412 192.003L366.349 191.685L365.322 191.397L364.333 191.138L363.381 190.907L362.468 190.702L361.595 190.522L360.761 190.365L359.967 190.231L359.214 190.116L358.502 190.02L357.832 189.942L357.204 189.88L356.619 189.832L356.076 189.798L355.576 189.775L355.119 189.761L354.706 189.757L354.336 189.759L354.009 189.767L353.727 189.778L353.488 189.792L353.293 189.807L353.141 189.821L353.033 189.833L352.968 189.841L351.995 189.993L349.738 178.596Z" fill="white" stroke="#007DFF" stroke-miterlimit="10"/>
</svg>
