<svg
      width="30"
      height="30"
      viewBox="0 0 30 30"
      fill="none"
      xmlns="http://www.w3.org/2000/svg"
    >
      <path
        d="M30.07 14.6655C30.07 15.8586 30.07 17.0516 30.07 18.2444C30.07 18.6977 29.9527 18.8339 29.5068 18.9619C27.8482 19.4383 26.1608 19.8002 24.4897 20.2262C22.1562 20.8212 20.0019 21.7918 18.1413 23.3421C18.0004 23.4595 17.93 23.445 17.811 23.322C17.3479 22.8436 16.8771 22.3715 16.3504 21.9562C16.2181 21.852 16.2323 21.788 16.3539 21.683C18.5336 19.7951 21.0363 18.5428 23.8449 17.8693C24.8501 17.6285 25.8584 17.4036 26.8687 17.1863C27.0767 17.1411 27.288 17.1069 27.4994 17.0805C27.6222 17.0647 27.6497 17.0041 27.6497 16.8931C27.6497 15.453 27.6511 14.013 27.654 12.5731C27.654 12.4062 27.5531 12.384 27.428 12.3597C26.7016 12.2099 25.9778 12.0486 25.2492 11.9103C25.0812 11.8782 25.0507 11.8053 25.0774 11.6712C25.2148 11.0143 25.3557 10.3583 25.5422 9.71336C25.5791 9.58531 25.6384 9.5375 25.7836 9.56866C27.0483 9.83884 28.3151 10.1001 29.5803 10.3685C29.9209 10.4411 30.0665 10.6319 30.067 10.9836C30.069 12.2123 30.07 13.4396 30.07 14.6655Z"
        fill="#0178E7"
      />
      <path
        d="M26.365 25.0901C26.362 25.3931 26.2005 25.5476 25.9784 25.6735C24.6304 26.4319 23.2844 27.1936 21.9403 27.9588C21.1385 28.4141 20.3349 28.8677 19.5295 29.3195C19.2022 29.5039 18.999 29.4719 18.7223 29.2132C17.4727 28.0463 16.3051 26.7987 15.0967 25.5907C13.3865 23.8834 11.4396 22.5175 9.12549 21.7249C8.95365 21.6664 8.93561 21.5926 8.98458 21.4372C9.18129 20.8218 9.33798 20.1945 9.45369 19.5592C9.48805 19.3615 9.55936 19.3457 9.73764 19.4029C12.2412 20.2101 14.4257 21.5405 16.3154 23.3533C17.3515 24.3474 18.3473 25.3803 19.2671 26.4828C19.3826 26.6215 19.4569 26.6424 19.6197 26.5494C20.8584 25.8408 22.1014 25.1406 23.3489 24.4485C23.5148 24.3563 23.5556 24.2778 23.4898 24.0934C23.2557 23.4369 23.0504 22.7702 22.818 22.1129C22.7449 21.9059 22.7557 21.8081 22.9954 21.7334C23.6157 21.5409 24.2326 21.3412 24.8632 21.1828C25.0054 21.147 25.0759 21.1641 25.1253 21.3147C25.5231 22.5274 25.9286 23.7374 26.3307 24.9483C26.347 25.003 26.3577 25.0615 26.365 25.0901Z"
        fill="#0178E7"
      />
      <path
        d="M21.3244 13.7012C21.3025 11.7805 21.7067 9.93359 22.2669 8.10974C22.544 7.20742 22.8305 6.30808 23.1724 5.42796C23.2279 5.28497 23.2197 5.21454 23.0702 5.12918C21.8046 4.41608 20.5435 3.69531 19.2869 2.96685C19.1232 2.87166 19.0588 2.94636 18.9703 3.04283C18.4805 3.5785 17.9861 4.1099 17.5032 4.65198C17.3744 4.79369 17.2932 4.82271 17.1368 4.68228C16.6497 4.24009 16.1488 3.8124 15.6831 3.34715C15.5628 3.22764 15.5757 3.16234 15.6831 3.04581C16.5358 2.12514 17.3804 1.19678 18.231 0.271405C18.5278 -0.0508527 18.7005 -0.0764626 19.0867 0.143356C20.9024 1.16775 22.7172 2.19357 24.5312 3.22081C24.8749 3.41417 25.2155 3.6071 25.5566 3.80259C25.8616 3.97716 25.9389 4.16283 25.8573 4.50174C25.4466 6.17918 24.9122 7.82163 24.4449 9.48286C23.9938 11.0877 23.7249 12.7225 23.7919 14.3983C23.8139 15.0793 23.8922 15.7574 24.026 16.4257C24.0655 16.6144 24.002 16.66 23.8447 16.6967C23.1944 16.8463 22.5529 17.0315 21.9232 17.2516C21.7514 17.3131 21.7084 17.2657 21.6736 17.1005C21.4416 15.9821 21.3246 14.8432 21.3244 13.7012Z"
        fill="#0178E7"
      />
      <path
        d="M3.70312 4.55409C3.70312 4.333 3.80537 4.17848 3.99309 4.0722L8.76919 1.36652C9.34955 1.03786 9.93163 0.71261 10.5103 0.380108C10.8505 0.18462 11.0494 0.209375 11.3389 0.474864C12.4855 1.52743 13.5612 2.65171 14.6416 3.7683C15.9853 5.15977 17.4815 6.35191 19.2097 7.24228C19.7646 7.52852 20.3401 7.77334 20.9315 7.97472C21.087 8.02765 21.1201 8.08484 21.0698 8.24747C20.88 8.86467 20.7077 9.48528 20.6016 10.1255C20.5672 10.3334 20.4766 10.3552 20.2957 10.2963C18.5606 9.72779 16.9292 8.88461 15.4647 7.79929C13.9646 6.68953 12.6977 5.33818 11.4481 3.96933C11.2238 3.72391 11.0026 3.47464 10.7951 3.21555C10.683 3.07555 10.5919 3.05634 10.4321 3.14768C9.3401 3.77086 8.24123 4.3855 7.14751 5.00013C7.12518 5.01251 7.10456 5.02916 7.08308 5.04282C6.89191 5.15251 6.6028 5.20885 6.5461 5.39794C6.49541 5.56867 6.64318 5.79746 6.70977 5.99849C6.89449 6.55593 7.07835 7.11338 7.27252 7.66783C7.32364 7.81381 7.29314 7.87399 7.14365 7.92393C6.49927 8.1318 5.8622 8.35076 5.20194 8.50143C5.04901 8.53601 4.99101 8.51167 4.94204 8.36356C4.54983 7.17612 4.14903 5.99166 3.75339 4.80507C3.73102 4.72262 3.71423 4.63877 3.70312 4.55409Z"
        fill="#0178E7"
      />
      <path
        d="M0.00601412 19.0158C0.00601412 16.506 0.00601412 13.9962 0.00601412 11.4865C0.00601412 11.4011 0.00214791 11.3157 0 11.2304C0.0640077 11.0007 0.226819 10.8889 0.449342 10.8236C2.05168 10.3575 3.67937 9.99427 5.29975 9.59817C7.73076 9.0036 9.98219 8.03042 11.9114 6.40377C12.0218 6.31072 12.0902 6.28938 12.2044 6.40676C12.686 6.90316 13.1796 7.38847 13.7204 7.82341C13.8703 7.9442 13.7668 7.99414 13.6843 8.06841C12.6791 8.94534 11.5754 9.70401 10.395 10.3293C8.51131 11.3367 6.46993 11.8617 4.40193 12.3107C3.80051 12.4413 3.19437 12.554 2.58737 12.6586C2.43272 12.6855 2.39406 12.7439 2.39449 12.8873C2.39678 14.3101 2.39435 15.7329 2.38719 17.1557C2.38719 17.3179 2.4426 17.3738 2.59596 17.4036C3.31809 17.5449 4.03721 17.6999 4.75848 17.845C4.92816 17.8787 5.01623 17.9146 4.96511 18.1352C4.81647 18.7635 4.69275 19.3978 4.5119 20.0193C4.4655 20.1789 4.39806 20.2195 4.24083 20.187C2.98473 19.9249 1.72735 19.6693 0.470821 19.4085C0.247868 19.3611 0.0764656 19.2459 0.00601412 19.0158Z"
        fill="#0178E7"
      />
      <path
        d="M8.71557 15.848C8.73963 17.7111 8.42045 19.4402 7.90624 21.1433C7.58878 22.1937 7.27561 23.2446 6.87137 24.2655C6.82111 24.3936 6.82111 24.4747 6.9603 24.5532C8.23186 25.2737 9.50099 25.9993 10.7677 26.7301C10.8867 26.7984 10.9537 26.7813 11.0413 26.666C11.4997 26.0599 11.9959 25.4876 12.5809 24.9941C12.7047 24.8904 12.7665 24.9118 12.8774 25.0035C13.3929 25.4304 13.871 25.8905 14.3461 26.3574C14.4715 26.4812 14.4548 26.5452 14.3371 26.6562C13.4115 27.5296 12.5484 28.4661 11.754 29.4588C11.6712 29.5639 11.5523 29.6351 11.4201 29.6587C11.2879 29.6823 11.1515 29.6567 11.037 29.5868C8.8642 28.3587 6.6921 27.1297 4.5207 25.8999C4.18348 25.7091 4.11561 25.5285 4.21699 25.1316C4.60018 23.624 5.0435 22.1339 5.49413 20.6452C5.82894 19.5393 6.06413 18.406 6.19693 17.2587C6.35416 15.9043 6.26266 14.5632 6.01951 13.229C5.99073 13.0727 6.03412 13.0454 6.16428 13.0113C6.82498 12.8367 7.48911 12.6698 8.13434 12.444C8.29673 12.3872 8.33883 12.444 8.3719 12.5921C8.5098 13.2063 8.58669 13.8299 8.658 14.4527C8.70941 14.9159 8.72864 15.3821 8.71557 15.848Z"
        fill="#0178E7"
      />
    </svg>