<svg width="548" height="671" viewBox="0 0 548 671" fill="none" xmlns="http://www.w3.org/2000/svg">
<path d="M256.98 79.4078C254.813 101.239 243.296 129.315 265.846 144.622C271.117 148.2 277.517 149.204 283.537 150.832" stroke="#B8B8B8" stroke-width="2" stroke-miterlimit="10" stroke-linecap="round" stroke-linejoin="round"/>
<path d="M308.745 151.108C332.99 147.541 344.257 126.815 344.622 103.698" stroke="#B8B8B8" stroke-width="2" stroke-miterlimit="10" stroke-linecap="round" stroke-linejoin="round"/>
<path d="M337.466 133.422C347.718 139.887 360.632 125.391 358.324 115.203C356.922 109.021 350.682 103.927 345.312 109.21" stroke="#B8B8B8" stroke-width="2" stroke-miterlimit="10" stroke-linecap="round" stroke-linejoin="round"/>
<path d="M254.026 95.2179C254.624 89.1833 248.672 90.0788 245.764 94.0926C242.897 98.0508 243.107 109.683 244.463 114.369C245.174 116.828 249.445 120.587 251.839 117.977" stroke="#B8B8B8" stroke-width="2" stroke-miterlimit="10" stroke-linecap="round" stroke-linejoin="round"/>
<path d="M242.114 77.6842C240.641 77.0968 249.727 77.6628 251.383 77.7831C259.212 78.3501 267.068 79.4758 274.798 80.8768C293.747 84.3114 313.196 87.6702 331.45 93.7328" stroke="#B8B8B8" stroke-width="2" stroke-miterlimit="10" stroke-linecap="round" stroke-linejoin="round"/>
<path d="M255.703 70.5966C254.446 70.81 233.009 74.3012 241.651 76.931" stroke="#B8B8B8" stroke-width="2" stroke-miterlimit="10" stroke-linecap="round" stroke-linejoin="round"/>
<path d="M332.173 93.5109C335.878 94.2505 338.857 94.5639 342.643 94.0893" stroke="#B8B8B8" stroke-width="2" stroke-miterlimit="10" stroke-linecap="round" stroke-linejoin="round"/>
<path d="M254.821 70.0372C274.916 66.9349 309.116 76.5243 326.699 84.9094C332.986 87.9075 339.205 92.9779 345.59 95.4256" stroke="#B8B8B8" stroke-width="2" stroke-miterlimit="10" stroke-linecap="round" stroke-linejoin="round"/>
<path d="M254.856 71.1398C260.54 54.0871 267.78 31.8875 293.067 25.3474" stroke="#B8B8B8" stroke-width="2" stroke-miterlimit="10" stroke-linecap="round" stroke-linejoin="round"/>
<path d="M264.4 69.2923C263.208 70.4838 266.937 61.4074 267.478 60.0555C269.48 55.0495 271.423 50.0374 273.943 45.2762C281.715 30.5929 303.035 8.59045 338.205 27.3901" stroke="#B8B8B8" stroke-width="2" stroke-miterlimit="10" stroke-linecap="round" stroke-linejoin="round"/>
<path d="M339.118 29.6268C335.543 21.3435 326.438 33.6577 324.431 37.2707C317.279 50.1459 315.366 65.2572 309.039 77.9136" stroke="#B8B8B8" stroke-width="2" stroke-miterlimit="10" stroke-linecap="round" stroke-linejoin="round"/>
<path d="M334.056 28.0668C339.831 29.4191 351.251 39.0708 353.888 42.4613C363.922 55.3657 367.003 69.2773 366.843 85.2741C366.821 87.361 363.111 110.657 361.041 108.545" stroke="#B8B8B8" stroke-width="2" stroke-miterlimit="10" stroke-linecap="round" stroke-linejoin="round"/>
<path d="M339.433 95.9998C345.357 93.1113 356.139 103.954 360.394 107.213" stroke="#B8B8B8" stroke-width="2" stroke-miterlimit="10" stroke-linecap="round" stroke-linejoin="round"/>
<path d="M339.112 90.0147C340.995 86.2478 346.823 81.7029 345.844 76.8068C345.469 74.9298 341.659 72.5572 340.148 71.6272C329.01 64.7719 331.411 69.9384 326.165 80.4325" stroke="#B8B8B8" stroke-width="2" stroke-miterlimit="10" stroke-linecap="round" stroke-linejoin="round"/>
<path d="M343.801 98.435C344.997 95.7536 344.475 105.534 345.496 106.779" stroke="#B8B8B8" stroke-width="2" stroke-miterlimit="10" stroke-linecap="round" stroke-linejoin="round"/>
<path d="M357.413 104.779L355.777 108.838" stroke="#B8B8B8" stroke-width="2" stroke-miterlimit="10" stroke-linecap="round" stroke-linejoin="round"/>
<path d="M361.02 108.176C360.629 108.193 356.015 109.669 356.392 109.571C357.374 109.315 361.888 108.138 361.02 108.176Z" stroke="#B8B8B8" stroke-width="2" stroke-miterlimit="10" stroke-linecap="round" stroke-linejoin="round"/>
<path d="M283.89 151.005C287.358 151.405 291.21 165.505 291.21 169.178" stroke="#B8B8B8" stroke-width="2" stroke-miterlimit="10" stroke-linecap="round" stroke-linejoin="round"/>
<path d="M308.015 151.127C308.015 152.765 309.025 160.857 311.034 160.857" stroke="#B8B8B8" stroke-width="2" stroke-miterlimit="10" stroke-linecap="round" stroke-linejoin="round"/>
<path d="M281.49 128.858C281.378 127.339 289.341 128.358 296.617 129.823C302.641 131.037 308.193 132.556 308.305 133.196C309.198 138.307 294.417 144.77 289.417 142.415C282.582 139.195 281.822 133.401 281.49 128.858Z" stroke="#B8B8B8" stroke-width="2" stroke-miterlimit="10" stroke-linecap="round" stroke-linejoin="round"/>
<path d="M340.301 151.218C331.833 159.678 318.498 161.967 310.283 170.705C309.154 171.905 311.811 179.294 311.489 181.429C310.329 189.098 306.785 195.523 303.941 202.692" stroke="#B8B8B8" stroke-width="2" stroke-miterlimit="10" stroke-linecap="round" stroke-linejoin="round"/>
<path d="M306.07 206.394C298.124 212.423 301.164 225.828 309.764 218.847C316.893 213.06 313.463 200.785 306.07 206.394Z" stroke="#B8B8B8" stroke-width="2" stroke-miterlimit="10" stroke-linecap="round" stroke-linejoin="round"/>
<path d="M319.283 202.43C320.859 193.788 321.282 181.46 326.79 174.123C330.643 168.99 338.067 164.338 343.081 160.268C343.422 159.991 344.999 158.715 345.459 158.968C347.758 160.23 349.964 165.856 350.3 168.213" stroke="#B8B8B8" stroke-width="2" stroke-miterlimit="10" stroke-linecap="round" stroke-linejoin="round"/>
<path d="M340.381 151.231C343.871 153.851 350.783 154.874 352.278 159.599C353.757 164.274 353.716 165.176 353.602 169.976C353.589 170.515 353.24 169.7 352.706 169.775C351.137 169.999 349.334 167.226 349.178 166.13" stroke="#B8B8B8" stroke-width="2" stroke-miterlimit="10" stroke-linecap="round" stroke-linejoin="round"/>
<path d="M262.736 160.809C258.325 174.023 255.246 187.725 250.828 200.959C247.582 210.68 242.2 212.38 243.952 224.69" stroke="#B8B8B8" stroke-width="2" stroke-miterlimit="10" stroke-linecap="round" stroke-linejoin="round"/>
<path d="M273.5 166.648C273.253 177.036 266.882 186.883 266.306 197.154C266.022 202.215 266.226 207.481 265.939 212.587" stroke="#B8B8B8" stroke-width="2" stroke-miterlimit="10" stroke-linecap="round" stroke-linejoin="round"/>
<path d="M255.399 208.32C252.361 206.743 245.1 223.064 252.565 224.426C258.307 225.473 261.413 217.671 261.228 213.258C261.149 211.368 261.057 208.764 259.168 207.783C257.788 207.067 256.224 208.748 255.399 208.32Z" stroke="#B8B8B8" stroke-width="2" stroke-miterlimit="10" stroke-linecap="round" stroke-linejoin="round"/>
<path d="M273.32 167.634C272.448 161.508 284.194 161.894 288.92 161.221" stroke="#B8B8B8" stroke-width="2" stroke-miterlimit="10" stroke-linecap="round" stroke-linejoin="round"/>
<path d="M263.409 161.034C270.415 160.037 282.169 153.991 287.14 161.181" stroke="#B8B8B8" stroke-width="2" stroke-miterlimit="10" stroke-linecap="round" stroke-linejoin="round"/>
<path d="M261.463 236.247C261.635 252.703 274.136 249.828 283.378 240.39C284.535 239.208 279.961 229.612 279.378 227.922C279.312 227.732 278.682 226.356 279.09 226.215C280.903 225.589 290.581 231.039 292.29 232.197C301.12 238.175 289.639 245.915 286.737 251.875C285.464 254.489 291.287 263.816 293.067 265.56" stroke="#B8B8B8" stroke-width="2" stroke-miterlimit="10" stroke-linecap="round" stroke-linejoin="round"/>
<path d="M261.291 236.571C260.317 240.299 258.454 243.863 257.629 247.769C257.21 249.754 256.524 251.764 256.703 253.809C257.968 268.275 270.916 255.503 274.476 258.213C276.742 259.938 279.771 264.905 280.712 267.633" stroke="#B8B8B8" stroke-width="2" stroke-miterlimit="10" stroke-linecap="round" stroke-linejoin="round"/>
<path d="M271.848 271.099C282.56 266.575 295.719 265.504 307.097 263.94C310.209 263.512 319.027 260.448 321.933 261.629" stroke="#B8B8B8" stroke-width="2" stroke-miterlimit="10" stroke-linecap="round" stroke-linejoin="round"/>
<path d="M271.688 269.5C271.688 277 274.5 286.018 275.787 293.421C277.962 305.925 279.111 306.714 291.846 309.14C295.691 309.873 317.605 316.733 320.205 311.532C321.948 308.046 323.257 304.394 325.33 300.939C326.057 299.726 330.287 295.8 330.455 294.788C330.87 292.298 324.622 261.408 321.63 261.408" stroke="#B8B8B8" stroke-width="2" stroke-miterlimit="10" stroke-linecap="round" stroke-linejoin="round"/>
<path d="M274.903 168.814C281.572 171.61 311.917 168.125 318.431 162.523" stroke="#B8B8B8" stroke-width="2" stroke-miterlimit="10" stroke-linecap="round" stroke-linejoin="round"/>
<path d="M311.544 161.57C314.977 161.829 321.991 161.205 325.274 160.379" stroke="#B8B8B8" stroke-width="2" stroke-miterlimit="10" stroke-linecap="round" stroke-linejoin="round"/>
<path d="M319.228 162.04C319.065 162.173 319.966 161.635 319.793 161.756C319.284 162.113 317.727 163.129 318.198 162.724C319.209 161.855 320.339 161.136 319.228 162.04Z" stroke="#B8B8B8" stroke-width="2" stroke-miterlimit="10" stroke-linecap="round" stroke-linejoin="round"/>
<path d="M322.004 161.27C321.592 161.682 319.923 162.316 320.426 162.021C321.602 161.332 322.7 160.576 322.004 161.27Z" stroke="#B8B8B8" stroke-width="2" stroke-miterlimit="10" stroke-linecap="round" stroke-linejoin="round"/>
<path d="M303.611 202.063C301.404 206.477 297.235 210.899 296.263 215.76C295.849 217.828 305.061 228.674 306.283 227.451C309.526 224.208 316.009 221.26 318.307 217.43C319.891 214.79 318.855 209.56 319.643 206.406" stroke="#B8B8B8" stroke-width="2" stroke-miterlimit="10" stroke-linecap="round" stroke-linejoin="round"/>
<path d="M244.493 226.115C247.021 226.958 249.16 233.131 251.507 233.131C255.066 233.131 264.867 219.935 264.867 215.76" stroke="#B8B8B8" stroke-width="2" stroke-miterlimit="10" stroke-linecap="round" stroke-linejoin="round"/>
<path d="M266.836 201.05C265.614 201.144 272.751 200.232 273.462 200.148C276.198 199.826 278.91 199.322 281.645 198.996C290 198 298.326 198.112 306.343 197.498" stroke="#B8B8B8" stroke-width="2" stroke-miterlimit="10" stroke-linecap="round" stroke-linejoin="round"/>
<path d="M217.836 287.23C214.995 301.898 203.069 304.777 206.467 323.666C208.946 337.447 211.422 351.237 213.969 365.004C214.842 369.721 218.632 377.865 216.976 382.65" stroke="#B8B8B8" stroke-width="2" stroke-miterlimit="10" stroke-linecap="round" stroke-linejoin="round"/>
<path d="M243.46 219.601C240.495 221.041 238.182 225.479 235.875 227.881C232.078 231.831 227.132 235.972 224.393 240.835C222.831 243.608 224.309 252.515 223.929 255.812C222.948 264.341 221.461 270.123 221.461 270.123" stroke="#B8B8B8" stroke-width="2" stroke-miterlimit="10" stroke-linecap="round" stroke-linejoin="round"/>
<path d="M216.261 377.193C205.62 387.592 213.092 391.548 216.815 405.216C217.772 408.735 217.528 416.178 220.012 419.02" stroke="#B8B8B8" stroke-width="2" stroke-miterlimit="10" stroke-linecap="round" stroke-linejoin="round"/>
<path d="M215.333 382.433C214.442 388.328 226.665 393.323 231.105 393.995C242.047 395.646 280.277 397.471 287.951 389.032" stroke="#B8B8B8" stroke-width="2" stroke-miterlimit="10" stroke-linecap="round" stroke-linejoin="round"/>
<path d="M219.535 418.686C238.55 431.614 255.16 428.743 275.53 423.215C280.456 421.877 286.707 420.941 290.621 417.953" stroke="#B8B8B8" stroke-width="2" stroke-miterlimit="10" stroke-linecap="round" stroke-linejoin="round"/>
<path d="M288.344 392.217C288.941 388.68 284.81 395.895 286.138 400.246C287.94 406.148 296.211 434.742 302.439 434.902" stroke="#B8B8B8" stroke-width="2" stroke-miterlimit="10" stroke-linecap="round" stroke-linejoin="round"/>
<path d="M288.897 390.313C288.208 406.305 334.271 398.674 345.182 398.951C346.963 398.998 356.154 393.547 357.086 391.797C357.601 390.829 358.274 382.828 358.779 382.913C364.637 383.902 360.785 403.477 360.707 406.543C360.632 409.486 364.214 422.204 361.351 423.079" stroke="#B8B8B8" stroke-width="2" stroke-miterlimit="10" stroke-linecap="round" stroke-linejoin="round"/>
<path d="M360.429 423.908C361.343 423.104 356.299 428.466 354.755 429.554C351.131 432.105 345.771 434.521 341.698 436.079C331.409 440.01 312.033 438.395 301.846 434.29" stroke="#B8B8B8" stroke-width="2" stroke-miterlimit="10" stroke-linecap="round" stroke-linejoin="round"/>
<path d="M261.446 325.189C262.243 335.059 264.864 353.383 271.962 360.678C277.438 366.306 278.266 355.247 281.503 366.594C283.612 373.987 286.074 381.245 288.185 388.645C288.704 390.463 289.03 395.219 289.379 393.359" stroke="#B8B8B8" stroke-width="2" stroke-miterlimit="10" stroke-linecap="round" stroke-linejoin="round"/>
<path d="M359.348 384.831C358.946 386.976 359.095 377.093 359.092 377.05C358.957 375.005 358.59 372.977 358.523 370.931C358.263 363.054 363.41 353.48 355.887 349.296" stroke="#B8B8B8" stroke-width="2" stroke-miterlimit="10" stroke-linecap="round" stroke-linejoin="round"/>
<path d="M216.48 284.727C214.569 283.038 220.082 289.109 220.36 289.385C223.789 292.793 226.821 296.323 230.457 299.536C239.536 307.557 248.817 314.481 259.495 320.27C289.996 336.807 329.638 343.374 359.558 349.596" stroke="#B8B8B8" stroke-width="2" stroke-miterlimit="10" stroke-linecap="round" stroke-linejoin="round"/>
<path d="M215.542 283.52C215.741 279.276 217.221 273.423 219.294 269.721" stroke="#B8B8B8" stroke-width="2" stroke-miterlimit="10" stroke-linecap="round" stroke-linejoin="round"/>
<path d="M220.706 270.182C223.987 272.977 226.102 276.733 229.62 279.292" stroke="#B8B8B8" stroke-width="2" stroke-miterlimit="10" stroke-linecap="round" stroke-linejoin="round"/>
<path d="M260.127 167.602C256.544 169.992 251.192 169.299 247.196 171.297C242.477 173.657 241.77 178.785 237.96 181.644C233.838 184.735 230.324 182.162 226.137 187.186C219.295 195.398 210.912 200.9 202.861 207.879C201.62 208.955 201.721 210.517 199.845 209.579" stroke="#B8B8B8" stroke-width="2" stroke-miterlimit="10" stroke-linecap="round" stroke-linejoin="round"/>
<path d="M201.034 213.65C198.228 204.424 199.631 208 192.58 207.673C191.758 207.636 190.578 206.168 190.229 206.914C189.469 208.544 190.375 216.316 190.255 218.087C189.736 225.776 188.504 232.772 185.772 240.006C185.577 240.522 183.824 250.433 176.764 254.869C175.521 255.65 176.151 255.282 172.915 257.731C172.915 257.731 170.436 258.851 170.48 258.883C171.731 259.803 194.758 258.643 196.246 257.41C197.595 256.293 198.588 251.087 198.986 249.728C199.776 247.037 199.906 245.346 199.906 245.346C199.906 245.346 199.922 248.44 199.533 249.645C199.292 250.388 195.625 258.321 195.866 258.586C199.575 262.655 203.795 250.111 203.818 248.433C203.997 235.57 203.427 221.519 201.034 213.65Z" stroke="#B8B8B8" stroke-width="2" stroke-miterlimit="10" stroke-linecap="round" stroke-linejoin="round"/>
<path d="M201.278 255.396C207.128 254.504 217.593 248.668 223.16 246.644" stroke="#B8B8B8" stroke-width="2" stroke-miterlimit="10" stroke-linecap="round" stroke-linejoin="round"/>
<path d="M238.217 202.886C237.175 210.178 236.636 217.651 236.636 225.014" stroke="#B8B8B8" stroke-width="2" stroke-miterlimit="10" stroke-linecap="round" stroke-linejoin="round"/>
<path d="M321.578 207.628C329.162 219.006 335.672 234.764 345.283 244.376" stroke="#B8B8B8" stroke-width="2" stroke-miterlimit="10" stroke-linecap="round" stroke-linejoin="round"/>
<path d="M344.966 243.888C349.33 256.981 350.65 274.218 357.53 286.261C360.7 291.806 366.928 295.179 369.777 300.882C373.616 308.558 370.186 313.01 367.003 319.212" stroke="#B8B8B8" stroke-width="2" stroke-miterlimit="10" stroke-linecap="round" stroke-linejoin="round"/>
<path d="M182.547 160.983C184.192 178.808 188.329 196.337 189.962 214.035" stroke="#B8B8B8" stroke-width="2" stroke-miterlimit="10" stroke-linecap="round" stroke-linejoin="round"/>
<path d="M161.66 162.072C163.429 181.238 160.663 201.003 159.886 220.171C159.24 236.124 152.997 251.391 170.653 259.709" stroke="#B8B8B8" stroke-width="2" stroke-miterlimit="10" stroke-linecap="round" stroke-linejoin="round"/>
<path d="M182.547 160.983C184.465 152.779 194.779 143.078 193.739 133.548" stroke="#B8B8B8" stroke-width="2" stroke-miterlimit="10" stroke-linecap="round" stroke-linejoin="round"/>
<path d="M192.75 140.526C195.045 131.245 194.779 119.943 193.643 106.373C193.578 105.593 190.61 104.756 189.871 104.497C182.292 101.834 187.243 131.987 174.707 126.573" stroke="#B8B8B8" stroke-width="2" stroke-miterlimit="10" stroke-linecap="round" stroke-linejoin="round"/>
<path d="M174.801 126.581C163.95 124.67 159.078 118.353 147.074 113.635C144.773 112.731 138.614 109.86 136.022 112.344C132.836 115.397 140.862 119.554 142.193 120.255C143.364 120.873 154.707 128.581 153.622 127.821C150.088 125.344 131.184 113.133 128.917 117.435C126.73 121.586 133.205 125.54 135.98 127.287C137.239 128.08 150.718 134.945 149.25 134.703C147.474 134.41 127.417 119.807 126.87 126.618C126.308 133.615 138.47 137.734 143.512 141.007C145.589 142.355 143.786 140.551 145.495 142.335C146.393 143.273 146.943 143.184 145.795 142.578C144.004 141.634 130.346 131.434 128.831 137.621C128.399 139.388 154.403 152.629 161.907 162.828" stroke="#B8B8B8" stroke-width="2" stroke-miterlimit="10" stroke-linecap="round" stroke-linejoin="round"/>
<path d="M387.752 227.683C382.868 222.637 374.16 239.744 372.801 242.643C369.23 250.249 358.793 271.235 364.552 280.389C365.694 282.205 369.585 281.371 371.264 282.53" stroke="#B8B8B8" stroke-width="2" stroke-miterlimit="10" stroke-linecap="round" stroke-linejoin="round"/>
<path d="M371.339 282.937C374.473 285.1 380.09 292.025 383.928 288.079" stroke="#B8B8B8" stroke-width="2" stroke-miterlimit="10" stroke-linecap="round" stroke-linejoin="round"/>
<path d="M337.412 164.63C345.92 165.027 351.281 167.903 355.688 173.005C363.848 182.45 367.551 197.608 372.822 205.983C375.956 210.964 384.134 221.078 385.24 227.103" stroke="#B8B8B8" stroke-width="2" stroke-miterlimit="10" stroke-linecap="round" stroke-linejoin="round"/>
<path d="M331.113 222.056C336.891 229.738 343.611 236.394 347.973 245.088C352.378 253.869 357.157 269.53 362.99 277.287" stroke="#B8B8B8" stroke-width="2" stroke-miterlimit="10" stroke-linecap="round" stroke-linejoin="round"/>
<path d="M386.724 232.362C382.135 246.134 378.645 257.146 378.645 272.031C378.645 276.744 379.289 281.049 381.583 285.255C381.889 285.818 384.155 290.049 384.155 288.193" stroke="#B8B8B8" stroke-width="2" stroke-miterlimit="10" stroke-linecap="round" stroke-linejoin="round"/>
<path d="M396.321 185.697C396.794 194.528 393.912 207.248 391.501 217.302C387.588 233.602 379.467 246.762 381.185 266.084" stroke="#B8B8B8" stroke-width="2" stroke-miterlimit="10" stroke-linecap="round" stroke-linejoin="round"/>
<path d="M396.275 187.182C396.275 180.702 396.182 172.491 400.312 166.98C403.713 162.449 408.813 156.049 410.83 150.498C411.52 148.601 416.145 135.882 420.072 139.811C424.65 144.39 409.521 167.271 417.315 162.731" stroke="#B8B8B8" stroke-width="2" stroke-miterlimit="10" stroke-linecap="round" stroke-linejoin="round"/>
<path d="M422.508 198.943C420.442 211.344 417.439 235.569 416.472 248.156C415.896 255.661 417.038 265.56 414.636 272.766C412.335 279.67 402.083 288.26 397.007 293.335" stroke="#B8B8B8" stroke-width="2" stroke-miterlimit="10" stroke-linecap="round" stroke-linejoin="round"/>
<path d="M396.274 292.968C394.403 292.968 384.23 289.768 383.355 288.021" stroke="#B8B8B8" stroke-width="2" stroke-miterlimit="10" stroke-linecap="round" stroke-linejoin="round"/>
<path d="M421.711 204.604C422.533 185.048 442.876 182.984 456.18 177.926" stroke="#B8B8B8" stroke-width="2" stroke-miterlimit="10" stroke-linecap="round" stroke-linejoin="round"/>
<path d="M415.451 162.986C426.506 162.698 436.545 150.192 447.981 147.333C449.838 146.868 458.265 144.915 458.514 146.526C459.236 151.241 447.86 153.06 442.748 158.17" stroke="#B8B8B8" stroke-width="2" stroke-miterlimit="10" stroke-linecap="round" stroke-linejoin="round"/>
<path d="M438.957 160.825C437.971 160.825 444.395 157.347 445.783 156.653C447.849 155.619 467.712 145.708 468.538 149.826C469.811 156.201 451.517 164.229 453.192 163.271C454.75 162.381 472.461 152.748 473.845 155.515C475.09 158.006 458.83 168.055 457.158 169.17C455.287 170.418 450.403 171.32 452.587 170.774C454.757 170.231 471.533 163.579 472.71 166.514C474.62 171.297 454.32 178.713 451.093 179.79" stroke="#B8B8B8" stroke-width="2" stroke-miterlimit="10" stroke-linecap="round" stroke-linejoin="round"/>
<path d="M342.85 320.967C344.221 325.574 339.59 335.919 349.978 334.728C352.25 334.467 350.984 321.303 349.629 319.61C348.546 318.256 342.708 320.489 342.85 320.967Z" stroke="#B8B8B8" stroke-width="2" stroke-miterlimit="10" stroke-linecap="round" stroke-linejoin="round"/>
<path d="M350.082 322.323C352.591 322.323 356.282 324.023 358.668 323.227C363.919 321.476 367.551 317.35 373.583 317.35C374.583 317.35 381.832 319.836 380.815 321.871C380.73 322.042 377.674 322.752 377.201 323.227C376.852 323.574 377.283 325.325 375.394 329.103" stroke="#B8B8B8" stroke-width="2" stroke-miterlimit="10" stroke-linecap="round" stroke-linejoin="round"/>
<path d="M351.73 333.311C348.062 333.94 353.753 334.326 353.753 334.326C353.753 334.326 358.679 337.451 357.765 337.24C355.663 336.755 355.823 332.61 351.73 333.311Z" stroke="#B8B8B8" stroke-width="2" stroke-miterlimit="10" stroke-linecap="round" stroke-linejoin="round"/>
<path d="M356.833 349.031C360.28 349.761 371.944 352.894 373.132 351.706C373.914 350.925 373.007 345.591 373.132 344.473C374.121 335.588 371.748 338.144 363.641 338.144" stroke="#B8B8B8" stroke-width="2" stroke-miterlimit="10" stroke-linecap="round" stroke-linejoin="round"/>
<path d="M360.931 351.254C364.143 367.331 368.618 383.362 373.132 399.172C375.519 407.522 380.652 407.959 383.448 402.367" stroke="#B8B8B8" stroke-width="2" stroke-miterlimit="10" stroke-linecap="round" stroke-linejoin="round"/>
<path d="M371.777 352.61C371.777 358.447 375.391 368.793 376.721 374.57C378.635 382.856 379.702 394.248 383.501 401.851" stroke="#B8B8B8" stroke-width="2" stroke-miterlimit="10" stroke-linecap="round" stroke-linejoin="round"/>
<path d="M371.777 336.788C372.972 334.997 374.957 331.925 377.201 331.364C377.756 331.225 383.529 331.626 383.529 330.008C383.529 329.87 377.813 327.455 377.201 326.843" stroke="#B8B8B8" stroke-width="2" stroke-miterlimit="10" stroke-linecap="round" stroke-linejoin="round"/>
<path d="M223.677 273.098C227.646 281.036 237.506 288.168 244.318 293.742C278.902 322.042 321.335 330.808 364.136 338.296" stroke="#B8B8B8" stroke-width="2" stroke-miterlimit="10" stroke-linecap="round" stroke-linejoin="round"/>
<path d="M219.804 304.847C217.548 313.712 216.82 323.327 216.167 332.476" stroke="#B8B8B8" stroke-width="2" stroke-miterlimit="10" stroke-linecap="round" stroke-linejoin="round"/>
<path d="M324.413 499.025C324.413 498.723 320.158 501.605 321.095 505.664C322.479 511.666 323.571 517.767 325.15 523.73C328.598 536.758 332.791 549.886 335.104 563.181C335.861 567.543 335.184 572.641 336.578 576.825" stroke="#B8B8B8" stroke-width="2" stroke-miterlimit="10" stroke-linecap="round" stroke-linejoin="round"/>
<path d="M323.307 499.765C330.225 497.456 338.973 498.111 346.163 497.182C352.549 496.361 359.963 492.572 366.437 493.497C371.524 494.222 372.339 514.864 372.051 518.525C369.895 546.118 381.968 541.362 376.685 544.443" stroke="#B8B8B8" stroke-width="2" stroke-miterlimit="10" stroke-linecap="round" stroke-linejoin="round"/>
<path d="M336.137 577.166C339.383 579.464 340.816 583.734 345.616 584.257C349.33 584.666 348.905 578.397 354.943 581.322C357.676 582.645 357.391 585.096 361.119 586.075C374.999 589.728 398.444 593.179 408.045 579.614" stroke="#B8B8B8" stroke-width="2" stroke-miterlimit="10" stroke-linecap="round" stroke-linejoin="round"/>
<path d="M348.656 549.776C364.822 544.574 381.395 542.938 397.174 551.309C399.586 552.59 404.05 554.781 405.381 557.503C406.935 560.676 407.369 573.093 404.516 575.971C395.261 585.31 370.795 582.627 359.209 580.144C356.196 579.5 353.953 576.327 351.299 575.69C349.59 575.281 347.091 577.301 345.37 577.597C342.996 578.002 340.841 575.996 338.699 575.163" stroke="#B8B8B8" stroke-width="2" stroke-miterlimit="10" stroke-linecap="round" stroke-linejoin="round"/>
<path d="M408.059 579.162C407.319 577.419 406.704 574.462 405.278 573.246" stroke="#B8B8B8" stroke-width="2" stroke-miterlimit="10" stroke-linecap="round" stroke-linejoin="round"/>
<path d="M262.772 491.494C254.203 495.845 246.021 491.394 250.827 512.939C251.668 516.711 252.505 520.499 253.088 524.32C253.133 524.612 247.916 528.888 253.505 534.157" stroke="#B8B8B8" stroke-width="2" stroke-miterlimit="10" stroke-linecap="round" stroke-linejoin="round"/>
<path d="M260.863 542.795C260.97 543.866 258.706 540.181 258.287 539.654C256.376 537.242 254.048 534.937 251.428 533.257C246.366 530.016 236.818 528.764 230.947 529.347C213.883 531.041 200.059 545.937 198.921 563.092C198.808 564.796 197.421 567.603 198.384 569.09C204.065 577.863 251.512 579.009 266.357 575.362C269.54 574.583 275.657 569.464 277.599 568.87C282.4 567.404 284.852 569.236 289.593 567.116C292.274 565.917 305.401 563.839 305.823 559.559C306.091 556.848 306.096 549.541 304.88 547.2C304.207 545.905 302.611 546.197 302.053 544.368C299.904 537.327 298.627 529.806 297.895 522.421C297.352 516.949 297.489 511.523 297.403 506.055C297.4 505.835 297.57 499.527 297.324 499.552C295.185 499.765 291.645 502.946 288.635 503.245C281.051 503.995 239.419 506.838 257.777 496.055C259.627 494.966 262.995 494.443 264.755 493.333" stroke="#B8B8B8" stroke-width="2" stroke-miterlimit="10" stroke-linecap="round" stroke-linejoin="round"/>
<path d="M200.798 571.502L199.061 575.042" stroke="#B8B8B8" stroke-width="2" stroke-miterlimit="10" stroke-linecap="round" stroke-linejoin="round"/>
<path d="M200.797 576.046C198.795 574.327 206.08 577.65 208.21 578.184C214.825 579.838 221.216 581.172 227.976 581.99C240.551 583.517 260.266 583.634 272.251 578.589C277.632 576.323 280.092 573.548 286.208 572.716C292.252 571.89 306.008 569.859 304.24 561.897" stroke="#B8B8B8" stroke-width="2" stroke-miterlimit="10" stroke-linecap="round" stroke-linejoin="round"/>
<path d="M242.305 428.014C242.305 435.588 246.984 443.625 249.918 450.331C255.621 463.37 259.58 477.626 263.306 491.291C264.392 495.275 266.456 499.996 266.456 504.155" stroke="#B8B8B8" stroke-width="2" stroke-miterlimit="10" stroke-linecap="round" stroke-linejoin="round"/>
<path d="M277.744 422.763C277.744 433.343 283.587 438.459 286.669 447.706C289.539 456.315 291.686 465.761 292.969 474.748C293.858 480.974 294.282 486.837 294.282 493.127C294.282 495.108 293.958 501.345 293.757 500.744" stroke="#B8B8B8" stroke-width="2" stroke-miterlimit="10" stroke-linecap="round" stroke-linejoin="round"/>
<path d="M296.644 498.904C296.644 497.396 294.716 495.571 294.02 494.18" stroke="#B8B8B8" stroke-width="2" stroke-miterlimit="10" stroke-linecap="round" stroke-linejoin="round"/>
<path d="M310.558 437.467C309.163 443.045 312.974 449.844 314.495 455.059C318.018 467.138 326.308 486.474 326.308 498.904" stroke="#B8B8B8" stroke-width="2" stroke-miterlimit="10" stroke-linecap="round" stroke-linejoin="round"/>
<path d="M344.421 435.631C344.421 442.988 347.772 449.67 349.671 456.632C351.463 463.203 352.376 469.995 354.134 476.587C355.204 480.6 356.228 484.962 357.022 488.929C357.317 490.405 358.071 495.244 358.071 494.18" stroke="#B8B8B8" stroke-width="2" stroke-miterlimit="10" stroke-linecap="round" stroke-linejoin="round"/>
<path d="M271.939 96.3427C270.442 98.5894 268.504 105.006 271.694 106.92C275.085 108.955 279.168 94.1537 273.415 95.1129C270.2 95.649 269.778 105.322 272.608 106.03C274.568 106.52 276.833 97.1909 274.153 95.8507C271.143 94.3455 270.378 107.126 272.186 106.674C274.301 106.145 275.673 96.5889 273.415 96.5889C272.165 96.5889 271.202 105.035 272.186 105.69C273.45 106.533 275.552 96.7202 274.645 95.3587C274.073 94.5013 272.696 105.681 273.169 105.444C274.248 104.905 275.636 100.166 274.891 99.0487C274.779 98.8804 272.561 106.778 274.399 101.263" stroke="#B8B8B8" stroke-width="2" stroke-miterlimit="10" stroke-linecap="round" stroke-linejoin="round"/>
<path d="M315.418 113.037C311.033 112.314 315.03 103.06 318.444 102.496C323.02 101.742 319.127 113.496 315.754 114.424C310.057 115.991 314.032 104.541 317.239 103.016C320.226 101.596 315.838 103.476 316.595 104.854C318.46 108.253 318.282 115.19 315.754 114.147C310.164 111.841 317.983 103.399 318.444 104.161C319.24 105.475 318.111 110.077 316.763 110.818C315.043 111.764 316.26 106.587 318.108 105.825C318.395 105.707 316.904 113.055 315.056 112.038C313.799 111.347 318.402 104.109 319.117 104.993C320.315 106.475 317.394 112.765 315.418 113.037ZM315.418 113.037C319.946 113.784 319.727 103.7 317.772 104.161C314.81 104.859 312.238 111.886 315.418 112.76C318.403 113.581 321.398 103.051 318.78 103.051C315.431 103.051 313.261 111.803 315.754 113.037C317.718 114.009 322.279 105.335 317.772 104.715C313.946 104.19 313.468 113.305 315.418 113.037Z" stroke="#B8B8B8" stroke-width="2" stroke-miterlimit="10" stroke-linecap="round" stroke-linejoin="round"/>
<path d="M277.35 116.022C276.346 118.031 282.385 121.433 284.237 121.433" stroke="#B8B8B8" stroke-width="2" stroke-miterlimit="10" stroke-linecap="round" stroke-linejoin="round"/>
<path d="M135.009 316.493C143.387 316.493 163.817 276.048 156.71 300.215C156.068 302.397 154.911 305.547 153.997 307.579C151.719 312.642 152.455 310.383 149.734 315.33C147.789 318.867 145.319 322.226 143.534 325.795" stroke="#B8B8B8" stroke-width="2" stroke-miterlimit="10" stroke-linecap="round" stroke-linejoin="round"/>
<path d="M135.066 316.465C123.106 300.518 80.6518 303.665 65.1773 317.304C38.0908 341.177 24.0411 429.672 82.0195 447.418C133.872 463.288 159.422 411.99 159.422 371.529C159.422 364.193 151.987 329.807 143.71 325.668" stroke="#B8B8B8" stroke-width="2" stroke-miterlimit="10" stroke-linecap="round" stroke-linejoin="round"/>
<path d="M282.623 87.2422C281.017 85.2954 277.025 84.3139 274.553 84.0773" stroke="#B8B8B8" stroke-width="2" stroke-miterlimit="10" stroke-linecap="round" stroke-linejoin="round"/>
<path d="M316.212 95.4017C319.637 95.8806 322.947 96.8614 326.27 97.8" stroke="#B8B8B8" stroke-width="2" stroke-miterlimit="10" stroke-linecap="round" stroke-linejoin="round"/>
<path d="M64.5903 352.691C70.1078 350.147 76.437 350.831 82.281 350.184" stroke="#B8B8B8" stroke-width="2" stroke-miterlimit="10" stroke-linecap="round" stroke-linejoin="round"/>
<path d="M72.2659 351.05C71.2866 355.611 72.3964 361.61 72.5536 366.31C72.613 368.081 72.3349 369.8 72.6451 371.536C72.7205 371.959 72.6031 373.919 72.7109 373.784" stroke="#B8B8B8" stroke-width="2" stroke-miterlimit="10" stroke-linecap="round" stroke-linejoin="round"/>
<path d="M79.8862 353.313C80.0182 354.505 81.3383 371.639 80.56 372.61C80.1808 373.083 80.507 371.397 80.4806 370.792C80.4529 370.155 80.4273 369.543 80.4547 368.907C80.5034 367.754 80.9516 361.311 83.1186 361.606C85.8615 361.976 86.0689 372.304 85.5865 374.553" stroke="#B8B8B8" stroke-width="2" stroke-miterlimit="10" stroke-linecap="round" stroke-linejoin="round"/>
<path d="M90.4333 359.454C89.7951 362.428 89.681 368.433 91.0167 371.329" stroke="#B8B8B8" stroke-width="2" stroke-miterlimit="10" stroke-linecap="round" stroke-linejoin="round"/>
<path d="M89.3119 354.828L89.1515 355.028L89.3386 355.069L89.5125 354.988L89.673 354.788M89.673 354.788L89.4727 354.627L89.1917 354.841L89.0312 355.042L89.0576 355.282L89.138 355.456L89.4321 355.363L89.6594 355.216L89.753 354.962L89.673 354.788ZM89.673 354.788L89.4058 354.574L89.2319 354.654L89.0714 354.854" stroke="#B8B8B8" stroke-width="2" stroke-miterlimit="10" stroke-linecap="round" stroke-linejoin="round"/>
<path d="M100.361 358.728C100.237 359.461 100.45 360.955 100.45 360.955C100.45 360.955 99.8005 359.226 99.0972 359.315C97.525 359.514 94.935 361.137 95.2125 363.012C95.6262 365.808 104.094 363.303 101.544 368.96C100.811 370.582 98.8571 371.159 97.2073 371.02C96.2377 370.938 95.2484 369.159 95.2313 369.362" stroke="#B8B8B8" stroke-width="2" stroke-miterlimit="10" stroke-linecap="round" stroke-linejoin="round"/>
<path d="M76.4846 385.101L76.6926 384.809L76.7969 384.664L76.5717 384.546L76.401 384.6L76.2967 384.745M76.2967 384.745L76.2718 384.906L76.2345 385.144L76.5386 385.272L76.7471 384.98L76.7844 384.742L76.5593 384.624L76.2967 384.745ZM76.2967 384.745L76.1929 384.891L76.3263 385.076" stroke="#B8B8B8" stroke-width="2" stroke-miterlimit="10" stroke-linecap="round" stroke-linejoin="round"/>
<path d="M77.6944 389.267C77.068 393.241 77.4351 396.863 78.6524 400.698" stroke="#B8B8B8" stroke-width="2" stroke-miterlimit="10" stroke-linecap="round" stroke-linejoin="round"/>
<path d="M87.8311 388.268C87.7229 388.954 88.7584 390.445 88.0733 390.335C87.0165 390.167 81.8864 387.222 82.2161 392.494C82.3787 395.102 88.9925 394.205 88.9587 396.56C88.9213 399.179 83.8247 402.897 82.685 399.303" stroke="#B8B8B8" stroke-width="2" stroke-miterlimit="10" stroke-linecap="round" stroke-linejoin="round"/>
<path d="M106.38 389.89C105.631 392.135 106.016 395.372 106.21 397.695C106.27 398.414 107.062 402.559 106.804 400.751" stroke="#B8B8B8" stroke-width="2" stroke-miterlimit="10" stroke-linecap="round" stroke-linejoin="round"/>
<path d="M105.192 384.457L105.107 384.624L105.022 384.795V384.966H105.192L105.361 384.795L105.446 384.624V384.457L105.276 384.286L104.937 384.372L104.852 384.624V384.881V385.051L105.022 385.137" stroke="#B8B8B8" stroke-width="2" stroke-miterlimit="10" stroke-linecap="round" stroke-linejoin="round"/>
<path d="M113.339 381.401C113.339 385.478 112.814 389.545 112.999 393.622C113.125 396.379 114.272 399.3 114.272 401.94" stroke="#B8B8B8" stroke-width="2" stroke-miterlimit="10" stroke-linecap="round" stroke-linejoin="round"/>
<path d="M110.368 388.36C110.368 388.943 117.38 387.485 118.515 386.919" stroke="#B8B8B8" stroke-width="2" stroke-miterlimit="10" stroke-linecap="round" stroke-linejoin="round"/>
<path d="M122.08 379.533C122.663 383.034 122.365 386.688 122.759 390.228C122.9 391.494 122.874 392.811 123.183 394.049C123.229 394.23 123.353 395.529 123.353 394.895" stroke="#B8B8B8" stroke-width="2" stroke-miterlimit="10" stroke-linecap="round" stroke-linejoin="round"/>
<path d="M123.607 400.157L123.522 400.328V400.751V401.008L123.692 401.093L123.777 400.922V400.751L123.692 400.584L123.522 400.499L123.438 400.666V400.922" stroke="#B8B8B8" stroke-width="2" stroke-miterlimit="10" stroke-linecap="round" stroke-linejoin="round"/>
</svg>
