<svg width="13" height="14" viewBox="0 0 13 14" fill="none" xmlns="http://www.w3.org/2000/svg">
<path fill-rule="evenodd" clip-rule="evenodd" d="M12.5559 1.44386C12.5559 1.25184 12.4857 1.06768 12.3606 0.931906C12.2356 0.796128 12.0661 0.719849 11.8892 0.719849H8.55591C8.3791 0.719849 8.20953 0.796128 8.0845 0.931906C7.95948 1.06768 7.88924 1.25184 7.88924 1.44386C7.88924 1.63588 7.95948 1.82003 8.0845 1.95581C8.20953 2.09159 8.3791 2.16787 8.55591 2.16787H10.2799L8.87324 3.69552C9.23811 3.9769 9.55697 4.32269 9.81658 4.71855L11.2226 3.19161V5.0639C11.2226 5.25592 11.2928 5.44007 11.4178 5.57585C11.5429 5.71163 11.7124 5.78791 11.8892 5.78791C12.0661 5.78791 12.2356 5.71163 12.3606 5.57585C12.4857 5.44007 12.5559 5.25592 12.5559 5.0639V1.44386ZM8.87391 3.69552C8.19738 3.17154 7.38686 2.89054 6.55591 2.89187H1.88924C1.53562 2.89187 1.19648 3.04443 0.946432 3.31599C0.696384 3.58754 0.555908 3.95585 0.555908 4.33989V12.304C0.555908 12.688 0.696384 13.0563 0.946432 13.3279C1.19648 13.5994 1.53562 13.752 1.88924 13.752H9.22258C9.5762 13.752 9.91534 13.5994 10.1654 13.3279C10.4154 13.0563 10.5559 12.688 10.5559 12.304V7.23592C10.5559 6.29761 10.2826 5.4288 9.81591 4.71855L5.69391 9.19581C5.56817 9.3277 5.39977 9.40067 5.22497 9.39902C5.05018 9.39737 4.88297 9.32123 4.75936 9.18699C4.63576 9.05276 4.56564 8.87117 4.56413 8.68133C4.56261 8.4915 4.6298 8.30862 4.75124 8.17207L8.87391 3.69552Z" fill="#007DFF"/>
</svg>
